M48
; DRILL file {KiCad 9.0.2} date 2025-08-09T13:20:07-0700
; FORMAT={-:-/ absolute / metric / decimal}
; #@! TF.CreationDate,2025-08-09T13:20:07-07:00
; #@! TF.GenerationSoftware,Kicad,Pcbnew,9.0.2
; #@! TF.FileFunction,Plated,1,4,PTH
FMAT,2
METRIC
; #@! TA.AperFunction,Plated,PTH,ComponentDrill
T1C1.000
; #@! TA.AperFunction,Plated,PTH,ComponentDrill
T2C3.200
%
G90
G05
T1
X99.54Y-71.66
X99.54Y-74.2
X99.54Y-76.74
X99.54Y-79.28
X99.54Y-81.82
X99.54Y-84.36
X99.54Y-86.9
X99.54Y-89.44
X99.54Y-91.98
X99.54Y-94.52
X99.54Y-97.06
X99.54Y-99.6
X99.54Y-102.14
X99.54Y-104.68
X99.54Y-107.22
X99.54Y-109.76
X99.54Y-112.3
X99.54Y-114.84
X99.54Y-117.38
X99.54Y-119.92
X102.08Y-69.12
X102.08Y-71.66
X102.08Y-74.2
X102.08Y-76.74
X102.08Y-79.28
X102.08Y-81.82
X102.08Y-84.36
X102.08Y-86.9
X102.08Y-89.44
X102.08Y-91.98
X102.08Y-94.52
X102.08Y-97.06
X102.08Y-99.6
X102.08Y-102.14
X102.08Y-104.68
X102.08Y-107.22
X102.08Y-109.76
X102.08Y-112.3
X102.08Y-114.84
X102.08Y-117.38
X102.08Y-119.92
X102.08Y-122.46
X104.62Y-69.12
X104.62Y-71.66
X104.62Y-74.2
X104.62Y-76.74
X104.62Y-79.28
X104.62Y-81.82
X104.62Y-84.36
X104.62Y-86.9
X104.62Y-89.44
X104.62Y-91.98
X104.62Y-94.52
X104.62Y-97.06
X104.62Y-99.6
X104.62Y-102.14
X104.62Y-104.68
X104.62Y-107.22
X104.62Y-109.76
X104.62Y-112.3
X104.62Y-114.84
X104.62Y-117.38
X104.62Y-119.92
X104.62Y-122.46
X107.16Y-69.12
X107.16Y-71.66
X107.16Y-74.2
X107.16Y-76.74
X107.16Y-79.28
X107.16Y-81.82
X107.16Y-84.36
X107.16Y-86.9
X107.16Y-89.44
X107.16Y-91.98
X107.16Y-94.52
X107.16Y-97.06
X107.16Y-99.6
X107.16Y-102.14
X107.16Y-104.68
X107.16Y-107.22
X107.16Y-109.76
X107.16Y-112.3
X107.16Y-114.84
X107.16Y-117.38
X107.16Y-119.92
X107.16Y-122.46
X109.7Y-69.12
X109.7Y-71.66
X109.7Y-74.2
X109.7Y-76.74
X109.7Y-79.28
X109.7Y-81.82
X109.7Y-84.36
X109.7Y-86.9
X109.7Y-89.44
X109.7Y-91.98
X109.7Y-94.52
X109.7Y-97.06
X109.7Y-99.6
X109.7Y-102.14
X109.7Y-104.68
X109.7Y-107.22
X109.7Y-109.76
X109.7Y-112.3
X109.7Y-114.84
X109.7Y-117.38
X109.7Y-119.92
X109.7Y-122.46
X112.24Y-69.12
X112.24Y-71.66
X112.24Y-74.2
X112.24Y-76.74
X112.24Y-79.28
X112.24Y-81.82
X112.24Y-84.36
X112.24Y-86.9
X112.24Y-89.44
X112.24Y-91.98
X112.24Y-94.52
X112.24Y-97.06
X112.24Y-99.6
X112.24Y-102.14
X112.24Y-104.68
X112.24Y-107.22
X112.24Y-109.76
X112.24Y-112.3
X112.24Y-114.84
X112.24Y-117.38
X112.24Y-119.92
X112.24Y-122.46
X114.78Y-69.12
X114.78Y-71.66
X114.78Y-74.2
X114.78Y-76.74
X114.78Y-79.28
X114.78Y-81.82
X114.78Y-84.36
X114.78Y-86.9
X114.78Y-89.44
X114.78Y-91.98
X114.78Y-94.52
X114.78Y-97.06
X114.78Y-99.6
X114.78Y-102.14
X114.78Y-104.68
X114.78Y-107.22
X114.78Y-109.76
X114.78Y-112.3
X114.78Y-114.84
X114.78Y-117.38
X114.78Y-119.92
X114.78Y-122.46
X117.32Y-69.12
X117.32Y-71.66
X117.32Y-74.2
X117.32Y-76.74
X117.32Y-79.28
X117.32Y-81.82
X117.32Y-84.36
X117.32Y-86.9
X117.32Y-89.44
X117.32Y-91.98
X117.32Y-94.52
X117.32Y-97.06
X117.32Y-99.6
X117.32Y-102.14
X117.32Y-104.68
X117.32Y-107.22
X117.32Y-109.76
X117.32Y-112.3
X117.32Y-114.84
X117.32Y-117.38
X117.32Y-119.92
X117.32Y-122.46
X119.86Y-69.12
X119.86Y-71.66
X119.86Y-74.2
X119.86Y-76.74
X119.86Y-79.28
X119.86Y-81.82
X119.86Y-84.36
X119.86Y-86.9
X119.86Y-89.44
X119.86Y-91.98
X119.86Y-94.52
X119.86Y-97.06
X119.86Y-99.6
X119.86Y-102.14
X119.86Y-104.68
X119.86Y-107.22
X119.86Y-109.76
X119.86Y-112.3
X119.86Y-114.84
X119.86Y-117.38
X119.86Y-119.92
X119.86Y-122.46
X122.4Y-69.12
X122.4Y-71.66
X122.4Y-74.2
X122.4Y-76.74
X122.4Y-79.28
X122.4Y-81.82
X122.4Y-84.36
X122.4Y-86.9
X122.4Y-89.44
X122.4Y-91.98
X122.4Y-94.52
X122.4Y-97.06
X122.4Y-99.6
X122.4Y-102.14
X122.4Y-104.68
X122.4Y-107.22
X122.4Y-109.76
X122.4Y-112.3
X122.4Y-114.84
X122.4Y-117.38
X122.4Y-119.92
X122.4Y-122.46
X124.94Y-69.12
X124.94Y-71.66
X124.94Y-74.2
X124.94Y-76.74
X124.94Y-79.28
X124.94Y-81.82
X124.94Y-84.36
X124.94Y-86.9
X124.94Y-89.44
X124.94Y-91.98
X124.94Y-94.52
X124.94Y-97.06
X124.94Y-99.6
X124.94Y-102.14
X124.94Y-104.68
X124.94Y-107.22
X124.94Y-109.76
X124.94Y-112.3
X124.94Y-114.84
X124.94Y-117.38
X124.94Y-119.92
X124.94Y-122.46
X127.48Y-69.12
X127.48Y-71.66
X127.48Y-74.2
X127.48Y-76.74
X127.48Y-79.28
X127.48Y-81.82
X127.48Y-84.36
X127.48Y-86.9
X127.48Y-89.44
X127.48Y-91.98
X127.48Y-94.52
X127.48Y-97.06
X127.48Y-99.6
X127.48Y-102.14
X127.48Y-104.68
X127.48Y-107.22
X127.48Y-109.76
X127.48Y-112.3
X127.48Y-114.84
X127.48Y-117.38
X127.48Y-119.92
X127.48Y-122.46
X130.02Y-69.12
X130.02Y-71.66
X130.02Y-74.2
X130.02Y-76.74
X130.02Y-79.28
X130.02Y-81.82
X130.02Y-84.36
X130.02Y-86.9
X130.02Y-89.44
X130.02Y-91.98
X130.02Y-94.52
X130.02Y-97.06
X130.02Y-99.6
X130.02Y-102.14
X130.02Y-104.68
X130.02Y-107.22
X130.02Y-109.76
X130.02Y-112.3
X130.02Y-114.84
X130.02Y-117.38
X130.02Y-119.92
X130.02Y-122.46
X132.56Y-69.12
X132.56Y-71.66
X132.56Y-74.2
X132.56Y-76.74
X132.56Y-79.28
X132.56Y-81.82
X132.56Y-84.36
X132.56Y-86.9
X132.56Y-89.44
X132.56Y-91.98
X132.56Y-94.52
X132.56Y-97.06
X132.56Y-99.6
X132.56Y-102.14
X132.56Y-104.68
X132.56Y-107.22
X132.56Y-109.76
X132.56Y-112.3
X132.56Y-114.84
X132.56Y-117.38
X132.56Y-119.92
X132.56Y-122.46
X135.1Y-69.12
X135.1Y-71.66
X135.1Y-74.2
X135.1Y-76.74
X135.1Y-79.28
X135.1Y-81.82
X135.1Y-84.36
X135.1Y-86.9
X135.1Y-89.44
X135.1Y-91.98
X135.1Y-94.52
X135.1Y-97.06
X135.1Y-99.6
X135.1Y-102.14
X135.1Y-104.68
X135.1Y-107.22
X135.1Y-109.76
X135.1Y-112.3
X135.1Y-114.84
X135.1Y-117.38
X135.1Y-119.92
X135.1Y-122.46
X137.64Y-69.12
X137.64Y-71.66
X137.64Y-74.2
X137.64Y-76.74
X137.64Y-79.28
X137.64Y-81.82
X137.64Y-84.36
X137.64Y-86.9
X137.64Y-89.44
X137.64Y-91.98
X137.64Y-94.52
X137.64Y-97.06
X137.64Y-99.6
X137.64Y-102.14
X137.64Y-104.68
X137.64Y-107.22
X137.64Y-109.76
X137.64Y-112.3
X137.64Y-114.84
X137.64Y-117.38
X137.64Y-119.92
X137.64Y-122.46
X140.18Y-69.12
X140.18Y-71.66
X140.18Y-74.2
X140.18Y-76.74
X140.18Y-79.28
X140.18Y-81.82
X140.18Y-84.36
X140.18Y-86.9
X140.18Y-89.44
X140.18Y-91.98
X140.18Y-94.52
X140.18Y-97.06
X140.18Y-99.6
X140.18Y-102.14
X140.18Y-104.68
X140.18Y-107.22
X140.18Y-109.76
X140.18Y-112.3
X140.18Y-114.84
X140.18Y-117.38
X140.18Y-119.92
X140.18Y-122.46
X142.72Y-69.12
X142.72Y-71.66
X142.72Y-74.2
X142.72Y-76.74
X142.72Y-79.28
X142.72Y-81.82
X142.72Y-84.36
X142.72Y-86.9
X142.72Y-89.44
X142.72Y-91.98
X142.72Y-94.52
X142.72Y-97.06
X142.72Y-99.6
X142.72Y-102.14
X142.72Y-104.68
X142.72Y-107.22
X142.72Y-109.76
X142.72Y-112.3
X142.72Y-114.84
X142.72Y-117.38
X142.72Y-119.92
X142.72Y-122.46
X145.26Y-69.12
X145.26Y-71.66
X145.26Y-74.2
X145.26Y-76.74
X145.26Y-79.28
X145.26Y-81.82
X145.26Y-84.36
X145.26Y-86.9
X145.26Y-89.44
X145.26Y-91.98
X145.26Y-94.52
X145.26Y-97.06
X145.26Y-99.6
X145.26Y-102.14
X145.26Y-104.68
X145.26Y-107.22
X145.26Y-109.76
X145.26Y-112.3
X145.26Y-114.84
X145.26Y-117.38
X145.26Y-119.92
X145.26Y-122.46
X147.8Y-69.12
X147.8Y-71.66
X147.8Y-74.2
X147.8Y-76.74
X147.8Y-79.28
X147.8Y-81.82
X147.8Y-84.36
X147.8Y-86.9
X147.8Y-89.44
X147.8Y-91.98
X147.8Y-94.52
X147.8Y-97.06
X147.8Y-99.6
X147.8Y-102.14
X147.8Y-104.68
X147.8Y-107.22
X147.8Y-109.76
X147.8Y-112.3
X147.8Y-114.84
X147.8Y-117.38
X147.8Y-119.92
X147.8Y-122.46
X150.34Y-69.12
X150.34Y-71.66
X150.34Y-74.2
X150.34Y-76.74
X150.34Y-79.28
X150.34Y-81.82
X150.34Y-84.36
X150.34Y-86.9
X150.34Y-89.44
X150.34Y-91.98
X150.34Y-94.52
X150.34Y-97.06
X150.34Y-99.6
X150.34Y-102.14
X150.34Y-104.68
X150.34Y-107.22
X150.34Y-109.76
X150.34Y-112.3
X150.34Y-114.84
X150.34Y-117.38
X150.34Y-119.92
X150.34Y-122.46
X152.88Y-69.12
X152.88Y-71.66
X152.88Y-74.2
X152.88Y-76.74
X152.88Y-79.28
X152.88Y-81.82
X152.88Y-84.36
X152.88Y-86.9
X152.88Y-89.44
X152.88Y-91.98
X152.88Y-94.52
X152.88Y-97.06
X152.88Y-99.6
X152.88Y-102.14
X152.88Y-104.68
X152.88Y-107.22
X152.88Y-109.76
X152.88Y-112.3
X152.88Y-114.84
X152.88Y-117.38
X152.88Y-119.92
X152.88Y-122.46
X155.42Y-69.12
X155.42Y-71.66
X155.42Y-74.2
X155.42Y-76.74
X155.42Y-79.28
X155.42Y-81.82
X155.42Y-84.36
X155.42Y-86.9
X155.42Y-89.44
X155.42Y-91.98
X155.42Y-94.52
X155.42Y-97.06
X155.42Y-99.6
X155.42Y-102.14
X155.42Y-104.68
X155.42Y-107.22
X155.42Y-109.76
X155.42Y-112.3
X155.42Y-114.84
X155.42Y-117.38
X155.42Y-119.92
X155.42Y-122.46
X157.96Y-69.12
X157.96Y-71.66
X157.96Y-74.2
X157.96Y-76.74
X157.96Y-79.28
X157.96Y-81.82
X157.96Y-84.36
X157.96Y-86.9
X157.96Y-89.44
X157.96Y-91.98
X157.96Y-94.52
X157.96Y-97.06
X157.96Y-99.6
X157.96Y-102.14
X157.96Y-104.68
X157.96Y-107.22
X157.96Y-109.76
X157.96Y-112.3
X157.96Y-114.84
X157.96Y-117.38
X157.96Y-119.92
X157.96Y-122.46
X160.5Y-69.12
X160.5Y-71.66
X160.5Y-74.2
X160.5Y-76.74
X160.5Y-79.28
X160.5Y-81.82
X160.5Y-84.36
X160.5Y-86.9
X160.5Y-89.44
X160.5Y-91.98
X160.5Y-94.52
X160.5Y-97.06
X160.5Y-99.6
X160.5Y-102.14
X160.5Y-104.68
X160.5Y-107.22
X160.5Y-109.76
X160.5Y-112.3
X160.5Y-114.84
X160.5Y-117.38
X160.5Y-119.92
X160.5Y-122.46
X163.04Y-71.66
X163.04Y-74.2
X163.04Y-76.74
X163.04Y-79.28
X163.04Y-81.82
X163.04Y-84.36
X163.04Y-86.9
X163.04Y-89.44
X163.04Y-91.98
X163.04Y-94.52
X163.04Y-97.06
X163.04Y-99.6
X163.04Y-102.14
X163.04Y-104.68
X163.04Y-107.22
X163.04Y-109.76
X163.04Y-112.3
X163.04Y-114.84
X163.04Y-117.38
X163.04Y-119.92
T2
X98.524Y-68.104
X98.524Y-123.476
X164.056Y-68.104
X164.056Y-123.476
M30
