%TF.GenerationSoftware,KiCad,Pcbnew,9.0.2*%
%TF.CreationDate,2025-08-09T13:20:03-07:00*%
%TF.ProjectId,perfidy-board,70657266-6964-4792-9d62-6f6172642e6b,1.1*%
%TF.SameCoordinates,Original*%
%TF.FileFunction,Legend,Top*%
%TF.FilePolarity,Positive*%
%FSLAX46Y46*%
G04 Gerber Fmt 4.6, Leading zero omitted, Abs format (unit mm)*
G04 Created by KiCad (PCBNEW 9.0.2) date 2025-08-09 13:20:03*
%MOMM*%
%LPD*%
G01*
G04 APERTURE LIST*
%ADD10C,0.152400*%
G04 APERTURE END LIST*
D10*
X108469786Y-125400603D02*
X108469786Y-124587803D01*
X108469786Y-124587803D02*
X108779424Y-124587803D01*
X108779424Y-124587803D02*
X108856834Y-124626508D01*
X108856834Y-124626508D02*
X108895539Y-124665213D01*
X108895539Y-124665213D02*
X108934243Y-124742622D01*
X108934243Y-124742622D02*
X108934243Y-124858737D01*
X108934243Y-124858737D02*
X108895539Y-124936146D01*
X108895539Y-124936146D02*
X108856834Y-124974851D01*
X108856834Y-124974851D02*
X108779424Y-125013556D01*
X108779424Y-125013556D02*
X108469786Y-125013556D01*
X109592224Y-125361899D02*
X109514815Y-125400603D01*
X109514815Y-125400603D02*
X109359996Y-125400603D01*
X109359996Y-125400603D02*
X109282586Y-125361899D01*
X109282586Y-125361899D02*
X109243882Y-125284489D01*
X109243882Y-125284489D02*
X109243882Y-124974851D01*
X109243882Y-124974851D02*
X109282586Y-124897441D01*
X109282586Y-124897441D02*
X109359996Y-124858737D01*
X109359996Y-124858737D02*
X109514815Y-124858737D01*
X109514815Y-124858737D02*
X109592224Y-124897441D01*
X109592224Y-124897441D02*
X109630929Y-124974851D01*
X109630929Y-124974851D02*
X109630929Y-125052260D01*
X109630929Y-125052260D02*
X109243882Y-125129670D01*
X109979272Y-125400603D02*
X109979272Y-124858737D01*
X109979272Y-125013556D02*
X110017977Y-124936146D01*
X110017977Y-124936146D02*
X110056682Y-124897441D01*
X110056682Y-124897441D02*
X110134091Y-124858737D01*
X110134091Y-124858737D02*
X110211501Y-124858737D01*
X110366320Y-124858737D02*
X110675958Y-124858737D01*
X110482434Y-125400603D02*
X110482434Y-124703918D01*
X110482434Y-124703918D02*
X110521139Y-124626508D01*
X110521139Y-124626508D02*
X110598549Y-124587803D01*
X110598549Y-124587803D02*
X110675958Y-124587803D01*
X110946891Y-125400603D02*
X110946891Y-124858737D01*
X110946891Y-124587803D02*
X110908187Y-124626508D01*
X110908187Y-124626508D02*
X110946891Y-124665213D01*
X110946891Y-124665213D02*
X110985596Y-124626508D01*
X110985596Y-124626508D02*
X110946891Y-124587803D01*
X110946891Y-124587803D02*
X110946891Y-124665213D01*
X111682282Y-125400603D02*
X111682282Y-124587803D01*
X111682282Y-125361899D02*
X111604873Y-125400603D01*
X111604873Y-125400603D02*
X111450054Y-125400603D01*
X111450054Y-125400603D02*
X111372644Y-125361899D01*
X111372644Y-125361899D02*
X111333939Y-125323194D01*
X111333939Y-125323194D02*
X111295235Y-125245784D01*
X111295235Y-125245784D02*
X111295235Y-125013556D01*
X111295235Y-125013556D02*
X111333939Y-124936146D01*
X111333939Y-124936146D02*
X111372644Y-124897441D01*
X111372644Y-124897441D02*
X111450054Y-124858737D01*
X111450054Y-124858737D02*
X111604873Y-124858737D01*
X111604873Y-124858737D02*
X111682282Y-124897441D01*
X111991920Y-124858737D02*
X112185444Y-125400603D01*
X112378967Y-124858737D02*
X112185444Y-125400603D01*
X112185444Y-125400603D02*
X112108034Y-125594127D01*
X112108034Y-125594127D02*
X112069329Y-125632832D01*
X112069329Y-125632832D02*
X111991920Y-125671537D01*
X113578815Y-124974851D02*
X113694929Y-125013556D01*
X113694929Y-125013556D02*
X113733634Y-125052260D01*
X113733634Y-125052260D02*
X113772338Y-125129670D01*
X113772338Y-125129670D02*
X113772338Y-125245784D01*
X113772338Y-125245784D02*
X113733634Y-125323194D01*
X113733634Y-125323194D02*
X113694929Y-125361899D01*
X113694929Y-125361899D02*
X113617519Y-125400603D01*
X113617519Y-125400603D02*
X113307881Y-125400603D01*
X113307881Y-125400603D02*
X113307881Y-124587803D01*
X113307881Y-124587803D02*
X113578815Y-124587803D01*
X113578815Y-124587803D02*
X113656224Y-124626508D01*
X113656224Y-124626508D02*
X113694929Y-124665213D01*
X113694929Y-124665213D02*
X113733634Y-124742622D01*
X113733634Y-124742622D02*
X113733634Y-124820032D01*
X113733634Y-124820032D02*
X113694929Y-124897441D01*
X113694929Y-124897441D02*
X113656224Y-124936146D01*
X113656224Y-124936146D02*
X113578815Y-124974851D01*
X113578815Y-124974851D02*
X113307881Y-124974851D01*
X114236796Y-125400603D02*
X114159386Y-125361899D01*
X114159386Y-125361899D02*
X114120681Y-125323194D01*
X114120681Y-125323194D02*
X114081977Y-125245784D01*
X114081977Y-125245784D02*
X114081977Y-125013556D01*
X114081977Y-125013556D02*
X114120681Y-124936146D01*
X114120681Y-124936146D02*
X114159386Y-124897441D01*
X114159386Y-124897441D02*
X114236796Y-124858737D01*
X114236796Y-124858737D02*
X114352910Y-124858737D01*
X114352910Y-124858737D02*
X114430319Y-124897441D01*
X114430319Y-124897441D02*
X114469024Y-124936146D01*
X114469024Y-124936146D02*
X114507729Y-125013556D01*
X114507729Y-125013556D02*
X114507729Y-125245784D01*
X114507729Y-125245784D02*
X114469024Y-125323194D01*
X114469024Y-125323194D02*
X114430319Y-125361899D01*
X114430319Y-125361899D02*
X114352910Y-125400603D01*
X114352910Y-125400603D02*
X114236796Y-125400603D01*
X115204414Y-125400603D02*
X115204414Y-124974851D01*
X115204414Y-124974851D02*
X115165709Y-124897441D01*
X115165709Y-124897441D02*
X115088300Y-124858737D01*
X115088300Y-124858737D02*
X114933481Y-124858737D01*
X114933481Y-124858737D02*
X114856071Y-124897441D01*
X115204414Y-125361899D02*
X115127005Y-125400603D01*
X115127005Y-125400603D02*
X114933481Y-125400603D01*
X114933481Y-125400603D02*
X114856071Y-125361899D01*
X114856071Y-125361899D02*
X114817367Y-125284489D01*
X114817367Y-125284489D02*
X114817367Y-125207079D01*
X114817367Y-125207079D02*
X114856071Y-125129670D01*
X114856071Y-125129670D02*
X114933481Y-125090965D01*
X114933481Y-125090965D02*
X115127005Y-125090965D01*
X115127005Y-125090965D02*
X115204414Y-125052260D01*
X115591461Y-125400603D02*
X115591461Y-124858737D01*
X115591461Y-125013556D02*
X115630166Y-124936146D01*
X115630166Y-124936146D02*
X115668871Y-124897441D01*
X115668871Y-124897441D02*
X115746280Y-124858737D01*
X115746280Y-124858737D02*
X115823690Y-124858737D01*
X116442966Y-125400603D02*
X116442966Y-124587803D01*
X116442966Y-125361899D02*
X116365557Y-125400603D01*
X116365557Y-125400603D02*
X116210738Y-125400603D01*
X116210738Y-125400603D02*
X116133328Y-125361899D01*
X116133328Y-125361899D02*
X116094623Y-125323194D01*
X116094623Y-125323194D02*
X116055919Y-125245784D01*
X116055919Y-125245784D02*
X116055919Y-125013556D01*
X116055919Y-125013556D02*
X116094623Y-124936146D01*
X116094623Y-124936146D02*
X116133328Y-124897441D01*
X116133328Y-124897441D02*
X116210738Y-124858737D01*
X116210738Y-124858737D02*
X116365557Y-124858737D01*
X116365557Y-124858737D02*
X116442966Y-124897441D01*
X117875042Y-125400603D02*
X117410585Y-125400603D01*
X117642813Y-125400603D02*
X117642813Y-124587803D01*
X117642813Y-124587803D02*
X117565404Y-124703918D01*
X117565404Y-124703918D02*
X117487994Y-124781327D01*
X117487994Y-124781327D02*
X117410585Y-124820032D01*
X118223384Y-125323194D02*
X118262089Y-125361899D01*
X118262089Y-125361899D02*
X118223384Y-125400603D01*
X118223384Y-125400603D02*
X118184680Y-125361899D01*
X118184680Y-125361899D02*
X118223384Y-125323194D01*
X118223384Y-125323194D02*
X118223384Y-125400603D01*
X119036185Y-125400603D02*
X118571728Y-125400603D01*
X118803956Y-125400603D02*
X118803956Y-124587803D01*
X118803956Y-124587803D02*
X118726547Y-124703918D01*
X118726547Y-124703918D02*
X118649137Y-124781327D01*
X118649137Y-124781327D02*
X118571728Y-124820032D01*
X149579082Y-124665213D02*
X149617786Y-124626508D01*
X149617786Y-124626508D02*
X149695196Y-124587803D01*
X149695196Y-124587803D02*
X149888720Y-124587803D01*
X149888720Y-124587803D02*
X149966129Y-124626508D01*
X149966129Y-124626508D02*
X150004834Y-124665213D01*
X150004834Y-124665213D02*
X150043539Y-124742622D01*
X150043539Y-124742622D02*
X150043539Y-124820032D01*
X150043539Y-124820032D02*
X150004834Y-124936146D01*
X150004834Y-124936146D02*
X149540377Y-125400603D01*
X149540377Y-125400603D02*
X150043539Y-125400603D01*
X150546700Y-124587803D02*
X150624110Y-124587803D01*
X150624110Y-124587803D02*
X150701519Y-124626508D01*
X150701519Y-124626508D02*
X150740224Y-124665213D01*
X150740224Y-124665213D02*
X150778929Y-124742622D01*
X150778929Y-124742622D02*
X150817634Y-124897441D01*
X150817634Y-124897441D02*
X150817634Y-125090965D01*
X150817634Y-125090965D02*
X150778929Y-125245784D01*
X150778929Y-125245784D02*
X150740224Y-125323194D01*
X150740224Y-125323194D02*
X150701519Y-125361899D01*
X150701519Y-125361899D02*
X150624110Y-125400603D01*
X150624110Y-125400603D02*
X150546700Y-125400603D01*
X150546700Y-125400603D02*
X150469291Y-125361899D01*
X150469291Y-125361899D02*
X150430586Y-125323194D01*
X150430586Y-125323194D02*
X150391881Y-125245784D01*
X150391881Y-125245784D02*
X150353177Y-125090965D01*
X150353177Y-125090965D02*
X150353177Y-124897441D01*
X150353177Y-124897441D02*
X150391881Y-124742622D01*
X150391881Y-124742622D02*
X150430586Y-124665213D01*
X150430586Y-124665213D02*
X150469291Y-124626508D01*
X150469291Y-124626508D02*
X150546700Y-124587803D01*
X151127272Y-124665213D02*
X151165976Y-124626508D01*
X151165976Y-124626508D02*
X151243386Y-124587803D01*
X151243386Y-124587803D02*
X151436910Y-124587803D01*
X151436910Y-124587803D02*
X151514319Y-124626508D01*
X151514319Y-124626508D02*
X151553024Y-124665213D01*
X151553024Y-124665213D02*
X151591729Y-124742622D01*
X151591729Y-124742622D02*
X151591729Y-124820032D01*
X151591729Y-124820032D02*
X151553024Y-124936146D01*
X151553024Y-124936146D02*
X151088567Y-125400603D01*
X151088567Y-125400603D02*
X151591729Y-125400603D01*
X152327119Y-124587803D02*
X151940071Y-124587803D01*
X151940071Y-124587803D02*
X151901367Y-124974851D01*
X151901367Y-124974851D02*
X151940071Y-124936146D01*
X151940071Y-124936146D02*
X152017481Y-124897441D01*
X152017481Y-124897441D02*
X152211005Y-124897441D01*
X152211005Y-124897441D02*
X152288414Y-124936146D01*
X152288414Y-124936146D02*
X152327119Y-124974851D01*
X152327119Y-124974851D02*
X152365824Y-125052260D01*
X152365824Y-125052260D02*
X152365824Y-125245784D01*
X152365824Y-125245784D02*
X152327119Y-125323194D01*
X152327119Y-125323194D02*
X152288414Y-125361899D01*
X152288414Y-125361899D02*
X152211005Y-125400603D01*
X152211005Y-125400603D02*
X152017481Y-125400603D01*
X152017481Y-125400603D02*
X151940071Y-125361899D01*
X151940071Y-125361899D02*
X151901367Y-125323194D01*
X152714166Y-125090965D02*
X153333443Y-125090965D01*
X153875309Y-124587803D02*
X153952719Y-124587803D01*
X153952719Y-124587803D02*
X154030128Y-124626508D01*
X154030128Y-124626508D02*
X154068833Y-124665213D01*
X154068833Y-124665213D02*
X154107538Y-124742622D01*
X154107538Y-124742622D02*
X154146243Y-124897441D01*
X154146243Y-124897441D02*
X154146243Y-125090965D01*
X154146243Y-125090965D02*
X154107538Y-125245784D01*
X154107538Y-125245784D02*
X154068833Y-125323194D01*
X154068833Y-125323194D02*
X154030128Y-125361899D01*
X154030128Y-125361899D02*
X153952719Y-125400603D01*
X153952719Y-125400603D02*
X153875309Y-125400603D01*
X153875309Y-125400603D02*
X153797900Y-125361899D01*
X153797900Y-125361899D02*
X153759195Y-125323194D01*
X153759195Y-125323194D02*
X153720490Y-125245784D01*
X153720490Y-125245784D02*
X153681786Y-125090965D01*
X153681786Y-125090965D02*
X153681786Y-124897441D01*
X153681786Y-124897441D02*
X153720490Y-124742622D01*
X153720490Y-124742622D02*
X153759195Y-124665213D01*
X153759195Y-124665213D02*
X153797900Y-124626508D01*
X153797900Y-124626508D02*
X153875309Y-124587803D01*
X154610700Y-124936146D02*
X154533290Y-124897441D01*
X154533290Y-124897441D02*
X154494585Y-124858737D01*
X154494585Y-124858737D02*
X154455881Y-124781327D01*
X154455881Y-124781327D02*
X154455881Y-124742622D01*
X154455881Y-124742622D02*
X154494585Y-124665213D01*
X154494585Y-124665213D02*
X154533290Y-124626508D01*
X154533290Y-124626508D02*
X154610700Y-124587803D01*
X154610700Y-124587803D02*
X154765519Y-124587803D01*
X154765519Y-124587803D02*
X154842928Y-124626508D01*
X154842928Y-124626508D02*
X154881633Y-124665213D01*
X154881633Y-124665213D02*
X154920338Y-124742622D01*
X154920338Y-124742622D02*
X154920338Y-124781327D01*
X154920338Y-124781327D02*
X154881633Y-124858737D01*
X154881633Y-124858737D02*
X154842928Y-124897441D01*
X154842928Y-124897441D02*
X154765519Y-124936146D01*
X154765519Y-124936146D02*
X154610700Y-124936146D01*
X154610700Y-124936146D02*
X154533290Y-124974851D01*
X154533290Y-124974851D02*
X154494585Y-125013556D01*
X154494585Y-125013556D02*
X154455881Y-125090965D01*
X154455881Y-125090965D02*
X154455881Y-125245784D01*
X154455881Y-125245784D02*
X154494585Y-125323194D01*
X154494585Y-125323194D02*
X154533290Y-125361899D01*
X154533290Y-125361899D02*
X154610700Y-125400603D01*
X154610700Y-125400603D02*
X154765519Y-125400603D01*
X154765519Y-125400603D02*
X154842928Y-125361899D01*
X154842928Y-125361899D02*
X154881633Y-125323194D01*
X154881633Y-125323194D02*
X154920338Y-125245784D01*
X154920338Y-125245784D02*
X154920338Y-125090965D01*
X154920338Y-125090965D02*
X154881633Y-125013556D01*
X154881633Y-125013556D02*
X154842928Y-124974851D01*
X154842928Y-124974851D02*
X154765519Y-124936146D01*
X155268680Y-125090965D02*
X155887957Y-125090965D01*
X156429823Y-124587803D02*
X156507233Y-124587803D01*
X156507233Y-124587803D02*
X156584642Y-124626508D01*
X156584642Y-124626508D02*
X156623347Y-124665213D01*
X156623347Y-124665213D02*
X156662052Y-124742622D01*
X156662052Y-124742622D02*
X156700757Y-124897441D01*
X156700757Y-124897441D02*
X156700757Y-125090965D01*
X156700757Y-125090965D02*
X156662052Y-125245784D01*
X156662052Y-125245784D02*
X156623347Y-125323194D01*
X156623347Y-125323194D02*
X156584642Y-125361899D01*
X156584642Y-125361899D02*
X156507233Y-125400603D01*
X156507233Y-125400603D02*
X156429823Y-125400603D01*
X156429823Y-125400603D02*
X156352414Y-125361899D01*
X156352414Y-125361899D02*
X156313709Y-125323194D01*
X156313709Y-125323194D02*
X156275004Y-125245784D01*
X156275004Y-125245784D02*
X156236300Y-125090965D01*
X156236300Y-125090965D02*
X156236300Y-124897441D01*
X156236300Y-124897441D02*
X156275004Y-124742622D01*
X156275004Y-124742622D02*
X156313709Y-124665213D01*
X156313709Y-124665213D02*
X156352414Y-124626508D01*
X156352414Y-124626508D02*
X156429823Y-124587803D01*
X157087804Y-125400603D02*
X157242623Y-125400603D01*
X157242623Y-125400603D02*
X157320033Y-125361899D01*
X157320033Y-125361899D02*
X157358737Y-125323194D01*
X157358737Y-125323194D02*
X157436147Y-125207079D01*
X157436147Y-125207079D02*
X157474852Y-125052260D01*
X157474852Y-125052260D02*
X157474852Y-124742622D01*
X157474852Y-124742622D02*
X157436147Y-124665213D01*
X157436147Y-124665213D02*
X157397442Y-124626508D01*
X157397442Y-124626508D02*
X157320033Y-124587803D01*
X157320033Y-124587803D02*
X157165214Y-124587803D01*
X157165214Y-124587803D02*
X157087804Y-124626508D01*
X157087804Y-124626508D02*
X157049099Y-124665213D01*
X157049099Y-124665213D02*
X157010395Y-124742622D01*
X157010395Y-124742622D02*
X157010395Y-124936146D01*
X157010395Y-124936146D02*
X157049099Y-125013556D01*
X157049099Y-125013556D02*
X157087804Y-125052260D01*
X157087804Y-125052260D02*
X157165214Y-125090965D01*
X157165214Y-125090965D02*
X157320033Y-125090965D01*
X157320033Y-125090965D02*
X157397442Y-125052260D01*
X157397442Y-125052260D02*
X157436147Y-125013556D01*
X157436147Y-125013556D02*
X157474852Y-124936146D01*
M02*
