%TF.GenerationSoftware,KiCad,Pcbnew,9.0.2*%
%TF.CreationDate,2025-08-09T11:44:39-07:00*%
%TF.ProjectId,perfidy-board,70657266-6964-4792-9d62-6f6172642e6b,1.0*%
%TF.SameCoordinates,Original*%
%TF.FileFunction,Copper,L3,Inr*%
%TF.FilePolarity,Positive*%
%FSLAX46Y46*%
G04 Gerber Fmt 4.6, Leading zero omitted, Abs format (unit mm)*
G04 Created by KiCad (PCBNEW 9.0.2) date 2025-08-09 11:44:39*
%MOMM*%
%LPD*%
G01*
G04 APERTURE LIST*
%TA.AperFunction,ComponentPad*%
%ADD10C,4.000000*%
%TD*%
%TA.AperFunction,ComponentPad*%
%ADD11C,1.500000*%
%TD*%
%TA.AperFunction,Conductor*%
%ADD12C,0.508000*%
%TD*%
G04 APERTURE END LIST*
D10*
%TO.N,unconnected-(TP572-Pad1)*%
%TO.C,TP572*%
X164056000Y-123476000D03*
%TD*%
%TO.N,unconnected-(TP547-Pad1)*%
%TO.C,TP547*%
X98524000Y-123476000D03*
%TD*%
%TO.N,unconnected-(TP26-Pad1)*%
%TO.C,TP26*%
X164056000Y-68104000D03*
%TD*%
%TO.N,unconnected-(TP1-Pad1)*%
%TO.C,TP1*%
X98524000Y-68104000D03*
%TD*%
D11*
%TO.N,/D*%
%TO.C,TP571*%
X160500000Y-122460000D03*
%TD*%
%TO.N,unconnected-(TP570-Pad1)*%
%TO.C,TP570*%
X157960000Y-122460000D03*
%TD*%
%TO.N,/D*%
%TO.C,TP569*%
X155420000Y-122460000D03*
%TD*%
%TO.N,/D*%
%TO.C,TP568*%
X152880000Y-122460000D03*
%TD*%
%TO.N,/D*%
%TO.C,TP567*%
X150340000Y-122460000D03*
%TD*%
%TO.N,/D*%
%TO.C,TP566*%
X147800000Y-122460000D03*
%TD*%
%TO.N,unconnected-(TP565-Pad1)*%
%TO.C,TP565*%
X145260000Y-122460000D03*
%TD*%
%TO.N,unconnected-(TP564-Pad1)*%
%TO.C,TP564*%
X142720000Y-122460000D03*
%TD*%
%TO.N,unconnected-(TP563-Pad1)*%
%TO.C,TP563*%
X140180000Y-122460000D03*
%TD*%
%TO.N,unconnected-(TP562-Pad1)*%
%TO.C,TP562*%
X137640000Y-122460000D03*
%TD*%
%TO.N,unconnected-(TP561-Pad1)*%
%TO.C,TP561*%
X135100000Y-122460000D03*
%TD*%
%TO.N,unconnected-(TP560-Pad1)*%
%TO.C,TP560*%
X132560000Y-122460000D03*
%TD*%
%TO.N,unconnected-(TP559-Pad1)*%
%TO.C,TP559*%
X130020000Y-122460000D03*
%TD*%
%TO.N,unconnected-(TP558-Pad1)*%
%TO.C,TP558*%
X127480000Y-122460000D03*
%TD*%
%TO.N,unconnected-(TP557-Pad1)*%
%TO.C,TP557*%
X124940000Y-122460000D03*
%TD*%
%TO.N,unconnected-(TP556-Pad1)*%
%TO.C,TP556*%
X122400000Y-122460000D03*
%TD*%
%TO.N,unconnected-(TP555-Pad1)*%
%TO.C,TP555*%
X119860000Y-122460000D03*
%TD*%
%TO.N,unconnected-(TP554-Pad1)*%
%TO.C,TP554*%
X117320000Y-122460000D03*
%TD*%
%TO.N,unconnected-(TP553-Pad1)*%
%TO.C,TP553*%
X114780000Y-122460000D03*
%TD*%
%TO.N,unconnected-(TP552-Pad1)*%
%TO.C,TP552*%
X112240000Y-122460000D03*
%TD*%
%TO.N,unconnected-(TP551-Pad1)*%
%TO.C,TP551*%
X109700000Y-122460000D03*
%TD*%
%TO.N,unconnected-(TP550-Pad1)*%
%TO.C,TP550*%
X107160000Y-122460000D03*
%TD*%
%TO.N,unconnected-(TP549-Pad1)*%
%TO.C,TP549*%
X104620000Y-122460000D03*
%TD*%
%TO.N,unconnected-(TP548-Pad1)*%
%TO.C,TP548*%
X102080000Y-122460000D03*
%TD*%
%TO.N,unconnected-(TP546-Pad1)*%
%TO.C,TP546*%
X163040000Y-119920000D03*
%TD*%
%TO.N,unconnected-(TP545-Pad1)*%
%TO.C,TP545*%
X160500000Y-119920000D03*
%TD*%
%TO.N,unconnected-(TP544-Pad1)*%
%TO.C,TP544*%
X157960000Y-119920000D03*
%TD*%
%TO.N,unconnected-(TP543-Pad1)*%
%TO.C,TP543*%
X155420000Y-119920000D03*
%TD*%
%TO.N,unconnected-(TP542-Pad1)*%
%TO.C,TP542*%
X152880000Y-119920000D03*
%TD*%
%TO.N,unconnected-(TP541-Pad1)*%
%TO.C,TP541*%
X150340000Y-119920000D03*
%TD*%
%TO.N,unconnected-(TP540-Pad1)*%
%TO.C,TP540*%
X147800000Y-119920000D03*
%TD*%
%TO.N,unconnected-(TP539-Pad1)*%
%TO.C,TP539*%
X145260000Y-119920000D03*
%TD*%
%TO.N,unconnected-(TP538-Pad1)*%
%TO.C,TP538*%
X142720000Y-119920000D03*
%TD*%
%TO.N,unconnected-(TP537-Pad1)*%
%TO.C,TP537*%
X140180000Y-119920000D03*
%TD*%
%TO.N,unconnected-(TP536-Pad1)*%
%TO.C,TP536*%
X137640000Y-119920000D03*
%TD*%
%TO.N,unconnected-(TP535-Pad1)*%
%TO.C,TP535*%
X135100000Y-119920000D03*
%TD*%
%TO.N,unconnected-(TP534-Pad1)*%
%TO.C,TP534*%
X132560000Y-119920000D03*
%TD*%
%TO.N,unconnected-(TP533-Pad1)*%
%TO.C,TP533*%
X130020000Y-119920000D03*
%TD*%
%TO.N,unconnected-(TP532-Pad1)*%
%TO.C,TP532*%
X127480000Y-119920000D03*
%TD*%
%TO.N,unconnected-(TP531-Pad1)*%
%TO.C,TP531*%
X124940000Y-119920000D03*
%TD*%
%TO.N,unconnected-(TP530-Pad1)*%
%TO.C,TP530*%
X122400000Y-119920000D03*
%TD*%
%TO.N,unconnected-(TP529-Pad1)*%
%TO.C,TP529*%
X119860000Y-119920000D03*
%TD*%
%TO.N,unconnected-(TP528-Pad1)*%
%TO.C,TP528*%
X117320000Y-119920000D03*
%TD*%
%TO.N,unconnected-(TP527-Pad1)*%
%TO.C,TP527*%
X114780000Y-119920000D03*
%TD*%
%TO.N,unconnected-(TP526-Pad1)*%
%TO.C,TP526*%
X112240000Y-119920000D03*
%TD*%
%TO.N,unconnected-(TP525-Pad1)*%
%TO.C,TP525*%
X109700000Y-119920000D03*
%TD*%
%TO.N,unconnected-(TP524-Pad1)*%
%TO.C,TP524*%
X107160000Y-119920000D03*
%TD*%
%TO.N,unconnected-(TP523-Pad1)*%
%TO.C,TP523*%
X104620000Y-119920000D03*
%TD*%
%TO.N,unconnected-(TP522-Pad1)*%
%TO.C,TP522*%
X102080000Y-119920000D03*
%TD*%
%TO.N,unconnected-(TP521-Pad1)*%
%TO.C,TP521*%
X99540000Y-119920000D03*
%TD*%
%TO.N,unconnected-(TP520-Pad1)*%
%TO.C,TP520*%
X163040000Y-117380000D03*
%TD*%
%TO.N,unconnected-(TP519-Pad1)*%
%TO.C,TP519*%
X160500000Y-117380000D03*
%TD*%
%TO.N,unconnected-(TP518-Pad1)*%
%TO.C,TP518*%
X157960000Y-117380000D03*
%TD*%
%TO.N,unconnected-(TP517-Pad1)*%
%TO.C,TP517*%
X155420000Y-117380000D03*
%TD*%
%TO.N,unconnected-(TP516-Pad1)*%
%TO.C,TP516*%
X152880000Y-117380000D03*
%TD*%
%TO.N,unconnected-(TP515-Pad1)*%
%TO.C,TP515*%
X150340000Y-117380000D03*
%TD*%
%TO.N,unconnected-(TP514-Pad1)*%
%TO.C,TP514*%
X147800000Y-117380000D03*
%TD*%
%TO.N,unconnected-(TP513-Pad1)*%
%TO.C,TP513*%
X145260000Y-117380000D03*
%TD*%
%TO.N,unconnected-(TP512-Pad1)*%
%TO.C,TP512*%
X142720000Y-117380000D03*
%TD*%
%TO.N,unconnected-(TP511-Pad1)*%
%TO.C,TP511*%
X140180000Y-117380000D03*
%TD*%
%TO.N,unconnected-(TP510-Pad1)*%
%TO.C,TP510*%
X137640000Y-117380000D03*
%TD*%
%TO.N,unconnected-(TP509-Pad1)*%
%TO.C,TP509*%
X135100000Y-117380000D03*
%TD*%
%TO.N,unconnected-(TP508-Pad1)*%
%TO.C,TP508*%
X132560000Y-117380000D03*
%TD*%
%TO.N,unconnected-(TP507-Pad1)*%
%TO.C,TP507*%
X130020000Y-117380000D03*
%TD*%
%TO.N,unconnected-(TP506-Pad1)*%
%TO.C,TP506*%
X127480000Y-117380000D03*
%TD*%
%TO.N,unconnected-(TP505-Pad1)*%
%TO.C,TP505*%
X124940000Y-117380000D03*
%TD*%
%TO.N,unconnected-(TP504-Pad1)*%
%TO.C,TP504*%
X122400000Y-117380000D03*
%TD*%
%TO.N,unconnected-(TP503-Pad1)*%
%TO.C,TP503*%
X119860000Y-117380000D03*
%TD*%
%TO.N,unconnected-(TP502-Pad1)*%
%TO.C,TP502*%
X117320000Y-117380000D03*
%TD*%
%TO.N,unconnected-(TP501-Pad1)*%
%TO.C,TP501*%
X114780000Y-117380000D03*
%TD*%
%TO.N,unconnected-(TP500-Pad1)*%
%TO.C,TP500*%
X112240000Y-117380000D03*
%TD*%
%TO.N,unconnected-(TP499-Pad1)*%
%TO.C,TP499*%
X109700000Y-117380000D03*
%TD*%
%TO.N,unconnected-(TP498-Pad1)*%
%TO.C,TP498*%
X107160000Y-117380000D03*
%TD*%
%TO.N,unconnected-(TP497-Pad1)*%
%TO.C,TP497*%
X104620000Y-117380000D03*
%TD*%
%TO.N,unconnected-(TP496-Pad1)*%
%TO.C,TP496*%
X102080000Y-117380000D03*
%TD*%
%TO.N,unconnected-(TP495-Pad1)*%
%TO.C,TP495*%
X99540000Y-117380000D03*
%TD*%
%TO.N,unconnected-(TP494-Pad1)*%
%TO.C,TP494*%
X163040000Y-114840000D03*
%TD*%
%TO.N,unconnected-(TP493-Pad1)*%
%TO.C,TP493*%
X160500000Y-114840000D03*
%TD*%
%TO.N,unconnected-(TP492-Pad1)*%
%TO.C,TP492*%
X157960000Y-114840000D03*
%TD*%
%TO.N,/C*%
%TO.C,TP491*%
X155420000Y-114840000D03*
%TD*%
%TO.N,unconnected-(TP490-Pad1)*%
%TO.C,TP490*%
X152880000Y-114840000D03*
%TD*%
%TO.N,unconnected-(TP489-Pad1)*%
%TO.C,TP489*%
X150340000Y-114840000D03*
%TD*%
%TO.N,unconnected-(TP488-Pad1)*%
%TO.C,TP488*%
X147800000Y-114840000D03*
%TD*%
%TO.N,unconnected-(TP487-Pad1)*%
%TO.C,TP487*%
X145260000Y-114840000D03*
%TD*%
%TO.N,unconnected-(TP486-Pad1)*%
%TO.C,TP486*%
X142720000Y-114840000D03*
%TD*%
%TO.N,unconnected-(TP485-Pad1)*%
%TO.C,TP485*%
X140180000Y-114840000D03*
%TD*%
%TO.N,unconnected-(TP484-Pad1)*%
%TO.C,TP484*%
X137640000Y-114840000D03*
%TD*%
%TO.N,unconnected-(TP483-Pad1)*%
%TO.C,TP483*%
X135100000Y-114840000D03*
%TD*%
%TO.N,unconnected-(TP482-Pad1)*%
%TO.C,TP482*%
X132560000Y-114840000D03*
%TD*%
%TO.N,unconnected-(TP481-Pad1)*%
%TO.C,TP481*%
X130020000Y-114840000D03*
%TD*%
%TO.N,unconnected-(TP480-Pad1)*%
%TO.C,TP480*%
X127480000Y-114840000D03*
%TD*%
%TO.N,unconnected-(TP479-Pad1)*%
%TO.C,TP479*%
X124940000Y-114840000D03*
%TD*%
%TO.N,/B*%
%TO.C,TP478*%
X122400000Y-114840000D03*
%TD*%
%TO.N,unconnected-(TP477-Pad1)*%
%TO.C,TP477*%
X119860000Y-114840000D03*
%TD*%
%TO.N,unconnected-(TP476-Pad1)*%
%TO.C,TP476*%
X117320000Y-114840000D03*
%TD*%
%TO.N,unconnected-(TP475-Pad1)*%
%TO.C,TP475*%
X114780000Y-114840000D03*
%TD*%
%TO.N,unconnected-(TP474-Pad1)*%
%TO.C,TP474*%
X112240000Y-114840000D03*
%TD*%
%TO.N,unconnected-(TP473-Pad1)*%
%TO.C,TP473*%
X109700000Y-114840000D03*
%TD*%
%TO.N,unconnected-(TP472-Pad1)*%
%TO.C,TP472*%
X107160000Y-114840000D03*
%TD*%
%TO.N,unconnected-(TP471-Pad1)*%
%TO.C,TP471*%
X104620000Y-114840000D03*
%TD*%
%TO.N,unconnected-(TP470-Pad1)*%
%TO.C,TP470*%
X102080000Y-114840000D03*
%TD*%
%TO.N,unconnected-(TP469-Pad1)*%
%TO.C,TP469*%
X99540000Y-114840000D03*
%TD*%
%TO.N,unconnected-(TP468-Pad1)*%
%TO.C,TP468*%
X163040000Y-112300000D03*
%TD*%
%TO.N,unconnected-(TP467-Pad1)*%
%TO.C,TP467*%
X160500000Y-112300000D03*
%TD*%
%TO.N,unconnected-(TP466-Pad1)*%
%TO.C,TP466*%
X157960000Y-112300000D03*
%TD*%
%TO.N,unconnected-(TP465-Pad1)*%
%TO.C,TP465*%
X155420000Y-112300000D03*
%TD*%
%TO.N,unconnected-(TP464-Pad1)*%
%TO.C,TP464*%
X152880000Y-112300000D03*
%TD*%
%TO.N,unconnected-(TP463-Pad1)*%
%TO.C,TP463*%
X150340000Y-112300000D03*
%TD*%
%TO.N,unconnected-(TP462-Pad1)*%
%TO.C,TP462*%
X147800000Y-112300000D03*
%TD*%
%TO.N,unconnected-(TP461-Pad1)*%
%TO.C,TP461*%
X145260000Y-112300000D03*
%TD*%
%TO.N,unconnected-(TP460-Pad1)*%
%TO.C,TP460*%
X142720000Y-112300000D03*
%TD*%
%TO.N,unconnected-(TP459-Pad1)*%
%TO.C,TP459*%
X140180000Y-112300000D03*
%TD*%
%TO.N,unconnected-(TP458-Pad1)*%
%TO.C,TP458*%
X137640000Y-112300000D03*
%TD*%
%TO.N,unconnected-(TP457-Pad1)*%
%TO.C,TP457*%
X135100000Y-112300000D03*
%TD*%
%TO.N,unconnected-(TP456-Pad1)*%
%TO.C,TP456*%
X132560000Y-112300000D03*
%TD*%
%TO.N,unconnected-(TP455-Pad1)*%
%TO.C,TP455*%
X130020000Y-112300000D03*
%TD*%
%TO.N,unconnected-(TP454-Pad1)*%
%TO.C,TP454*%
X127480000Y-112300000D03*
%TD*%
%TO.N,unconnected-(TP453-Pad1)*%
%TO.C,TP453*%
X124940000Y-112300000D03*
%TD*%
%TO.N,unconnected-(TP452-Pad1)*%
%TO.C,TP452*%
X122400000Y-112300000D03*
%TD*%
%TO.N,unconnected-(TP451-Pad1)*%
%TO.C,TP451*%
X119860000Y-112300000D03*
%TD*%
%TO.N,unconnected-(TP450-Pad1)*%
%TO.C,TP450*%
X117320000Y-112300000D03*
%TD*%
%TO.N,unconnected-(TP449-Pad1)*%
%TO.C,TP449*%
X114780000Y-112300000D03*
%TD*%
%TO.N,unconnected-(TP448-Pad1)*%
%TO.C,TP448*%
X112240000Y-112300000D03*
%TD*%
%TO.N,unconnected-(TP447-Pad1)*%
%TO.C,TP447*%
X109700000Y-112300000D03*
%TD*%
%TO.N,unconnected-(TP446-Pad1)*%
%TO.C,TP446*%
X107160000Y-112300000D03*
%TD*%
%TO.N,unconnected-(TP445-Pad1)*%
%TO.C,TP445*%
X104620000Y-112300000D03*
%TD*%
%TO.N,unconnected-(TP444-Pad1)*%
%TO.C,TP444*%
X102080000Y-112300000D03*
%TD*%
%TO.N,unconnected-(TP443-Pad1)*%
%TO.C,TP443*%
X99540000Y-112300000D03*
%TD*%
%TO.N,unconnected-(TP442-Pad1)*%
%TO.C,TP442*%
X163040000Y-109760000D03*
%TD*%
%TO.N,unconnected-(TP441-Pad1)*%
%TO.C,TP441*%
X160500000Y-109760000D03*
%TD*%
%TO.N,unconnected-(TP440-Pad1)*%
%TO.C,TP440*%
X157960000Y-109760000D03*
%TD*%
%TO.N,unconnected-(TP439-Pad1)*%
%TO.C,TP439*%
X155420000Y-109760000D03*
%TD*%
%TO.N,unconnected-(TP438-Pad1)*%
%TO.C,TP438*%
X152880000Y-109760000D03*
%TD*%
%TO.N,unconnected-(TP437-Pad1)*%
%TO.C,TP437*%
X150340000Y-109760000D03*
%TD*%
%TO.N,unconnected-(TP436-Pad1)*%
%TO.C,TP436*%
X147800000Y-109760000D03*
%TD*%
%TO.N,unconnected-(TP435-Pad1)*%
%TO.C,TP435*%
X145260000Y-109760000D03*
%TD*%
%TO.N,unconnected-(TP434-Pad1)*%
%TO.C,TP434*%
X142720000Y-109760000D03*
%TD*%
%TO.N,unconnected-(TP433-Pad1)*%
%TO.C,TP433*%
X140180000Y-109760000D03*
%TD*%
%TO.N,unconnected-(TP432-Pad1)*%
%TO.C,TP432*%
X137640000Y-109760000D03*
%TD*%
%TO.N,unconnected-(TP431-Pad1)*%
%TO.C,TP431*%
X135100000Y-109760000D03*
%TD*%
%TO.N,unconnected-(TP430-Pad1)*%
%TO.C,TP430*%
X132560000Y-109760000D03*
%TD*%
%TO.N,unconnected-(TP429-Pad1)*%
%TO.C,TP429*%
X130020000Y-109760000D03*
%TD*%
%TO.N,unconnected-(TP428-Pad1)*%
%TO.C,TP428*%
X127480000Y-109760000D03*
%TD*%
%TO.N,unconnected-(TP427-Pad1)*%
%TO.C,TP427*%
X124940000Y-109760000D03*
%TD*%
%TO.N,unconnected-(TP426-Pad1)*%
%TO.C,TP426*%
X122400000Y-109760000D03*
%TD*%
%TO.N,unconnected-(TP425-Pad1)*%
%TO.C,TP425*%
X119860000Y-109760000D03*
%TD*%
%TO.N,unconnected-(TP424-Pad1)*%
%TO.C,TP424*%
X117320000Y-109760000D03*
%TD*%
%TO.N,unconnected-(TP423-Pad1)*%
%TO.C,TP423*%
X114780000Y-109760000D03*
%TD*%
%TO.N,unconnected-(TP422-Pad1)*%
%TO.C,TP422*%
X112240000Y-109760000D03*
%TD*%
%TO.N,unconnected-(TP421-Pad1)*%
%TO.C,TP421*%
X109700000Y-109760000D03*
%TD*%
%TO.N,unconnected-(TP420-Pad1)*%
%TO.C,TP420*%
X107160000Y-109760000D03*
%TD*%
%TO.N,unconnected-(TP419-Pad1)*%
%TO.C,TP419*%
X104620000Y-109760000D03*
%TD*%
%TO.N,unconnected-(TP418-Pad1)*%
%TO.C,TP418*%
X102080000Y-109760000D03*
%TD*%
%TO.N,unconnected-(TP417-Pad1)*%
%TO.C,TP417*%
X99540000Y-109760000D03*
%TD*%
%TO.N,unconnected-(TP416-Pad1)*%
%TO.C,TP416*%
X163040000Y-107220000D03*
%TD*%
%TO.N,unconnected-(TP415-Pad1)*%
%TO.C,TP415*%
X160500000Y-107220000D03*
%TD*%
%TO.N,unconnected-(TP414-Pad1)*%
%TO.C,TP414*%
X157960000Y-107220000D03*
%TD*%
%TO.N,unconnected-(TP413-Pad1)*%
%TO.C,TP413*%
X155420000Y-107220000D03*
%TD*%
%TO.N,unconnected-(TP412-Pad1)*%
%TO.C,TP412*%
X152880000Y-107220000D03*
%TD*%
%TO.N,unconnected-(TP411-Pad1)*%
%TO.C,TP411*%
X150340000Y-107220000D03*
%TD*%
%TO.N,unconnected-(TP410-Pad1)*%
%TO.C,TP410*%
X147800000Y-107220000D03*
%TD*%
%TO.N,unconnected-(TP409-Pad1)*%
%TO.C,TP409*%
X145260000Y-107220000D03*
%TD*%
%TO.N,unconnected-(TP408-Pad1)*%
%TO.C,TP408*%
X142720000Y-107220000D03*
%TD*%
%TO.N,unconnected-(TP407-Pad1)*%
%TO.C,TP407*%
X140180000Y-107220000D03*
%TD*%
%TO.N,unconnected-(TP406-Pad1)*%
%TO.C,TP406*%
X137640000Y-107220000D03*
%TD*%
%TO.N,unconnected-(TP405-Pad1)*%
%TO.C,TP405*%
X135100000Y-107220000D03*
%TD*%
%TO.N,unconnected-(TP404-Pad1)*%
%TO.C,TP404*%
X132560000Y-107220000D03*
%TD*%
%TO.N,/E*%
%TO.C,TP403*%
X130020000Y-107220000D03*
%TD*%
%TO.N,unconnected-(TP402-Pad1)*%
%TO.C,TP402*%
X127480000Y-107220000D03*
%TD*%
%TO.N,unconnected-(TP401-Pad1)*%
%TO.C,TP401*%
X124940000Y-107220000D03*
%TD*%
%TO.N,unconnected-(TP400-Pad1)*%
%TO.C,TP400*%
X122400000Y-107220000D03*
%TD*%
%TO.N,unconnected-(TP399-Pad1)*%
%TO.C,TP399*%
X119860000Y-107220000D03*
%TD*%
%TO.N,unconnected-(TP398-Pad1)*%
%TO.C,TP398*%
X117320000Y-107220000D03*
%TD*%
%TO.N,unconnected-(TP397-Pad1)*%
%TO.C,TP397*%
X114780000Y-107220000D03*
%TD*%
%TO.N,unconnected-(TP396-Pad1)*%
%TO.C,TP396*%
X112240000Y-107220000D03*
%TD*%
%TO.N,unconnected-(TP395-Pad1)*%
%TO.C,TP395*%
X109700000Y-107220000D03*
%TD*%
%TO.N,unconnected-(TP394-Pad1)*%
%TO.C,TP394*%
X107160000Y-107220000D03*
%TD*%
%TO.N,unconnected-(TP393-Pad1)*%
%TO.C,TP393*%
X104620000Y-107220000D03*
%TD*%
%TO.N,unconnected-(TP392-Pad1)*%
%TO.C,TP392*%
X102080000Y-107220000D03*
%TD*%
%TO.N,unconnected-(TP391-Pad1)*%
%TO.C,TP391*%
X99540000Y-107220000D03*
%TD*%
%TO.N,unconnected-(TP390-Pad1)*%
%TO.C,TP390*%
X163040000Y-104680000D03*
%TD*%
%TO.N,unconnected-(TP389-Pad1)*%
%TO.C,TP389*%
X160500000Y-104680000D03*
%TD*%
%TO.N,unconnected-(TP388-Pad1)*%
%TO.C,TP388*%
X157960000Y-104680000D03*
%TD*%
%TO.N,unconnected-(TP387-Pad1)*%
%TO.C,TP387*%
X155420000Y-104680000D03*
%TD*%
%TO.N,unconnected-(TP386-Pad1)*%
%TO.C,TP386*%
X152880000Y-104680000D03*
%TD*%
%TO.N,unconnected-(TP385-Pad1)*%
%TO.C,TP385*%
X150340000Y-104680000D03*
%TD*%
%TO.N,unconnected-(TP384-Pad1)*%
%TO.C,TP384*%
X147800000Y-104680000D03*
%TD*%
%TO.N,unconnected-(TP383-Pad1)*%
%TO.C,TP383*%
X145260000Y-104680000D03*
%TD*%
%TO.N,unconnected-(TP382-Pad1)*%
%TO.C,TP382*%
X142720000Y-104680000D03*
%TD*%
%TO.N,unconnected-(TP381-Pad1)*%
%TO.C,TP381*%
X140180000Y-104680000D03*
%TD*%
%TO.N,unconnected-(TP380-Pad1)*%
%TO.C,TP380*%
X137640000Y-104680000D03*
%TD*%
%TO.N,unconnected-(TP379-Pad1)*%
%TO.C,TP379*%
X135100000Y-104680000D03*
%TD*%
%TO.N,unconnected-(TP378-Pad1)*%
%TO.C,TP378*%
X132560000Y-104680000D03*
%TD*%
%TO.N,unconnected-(TP377-Pad1)*%
%TO.C,TP377*%
X130020000Y-104680000D03*
%TD*%
%TO.N,unconnected-(TP376-Pad1)*%
%TO.C,TP376*%
X127480000Y-104680000D03*
%TD*%
%TO.N,unconnected-(TP375-Pad1)*%
%TO.C,TP375*%
X124940000Y-104680000D03*
%TD*%
%TO.N,unconnected-(TP374-Pad1)*%
%TO.C,TP374*%
X122400000Y-104680000D03*
%TD*%
%TO.N,unconnected-(TP373-Pad1)*%
%TO.C,TP373*%
X119860000Y-104680000D03*
%TD*%
%TO.N,/B*%
%TO.C,TP372*%
X117320000Y-104680000D03*
%TD*%
%TO.N,unconnected-(TP371-Pad1)*%
%TO.C,TP371*%
X114780000Y-104680000D03*
%TD*%
%TO.N,unconnected-(TP370-Pad1)*%
%TO.C,TP370*%
X112240000Y-104680000D03*
%TD*%
%TO.N,unconnected-(TP369-Pad1)*%
%TO.C,TP369*%
X109700000Y-104680000D03*
%TD*%
%TO.N,unconnected-(TP368-Pad1)*%
%TO.C,TP368*%
X107160000Y-104680000D03*
%TD*%
%TO.N,unconnected-(TP367-Pad1)*%
%TO.C,TP367*%
X104620000Y-104680000D03*
%TD*%
%TO.N,unconnected-(TP366-Pad1)*%
%TO.C,TP366*%
X102080000Y-104680000D03*
%TD*%
%TO.N,unconnected-(TP365-Pad1)*%
%TO.C,TP365*%
X99540000Y-104680000D03*
%TD*%
%TO.N,unconnected-(TP364-Pad1)*%
%TO.C,TP364*%
X163040000Y-102140000D03*
%TD*%
%TO.N,unconnected-(TP363-Pad1)*%
%TO.C,TP363*%
X160500000Y-102140000D03*
%TD*%
%TO.N,unconnected-(TP362-Pad1)*%
%TO.C,TP362*%
X157960000Y-102140000D03*
%TD*%
%TO.N,unconnected-(TP361-Pad1)*%
%TO.C,TP361*%
X155420000Y-102140000D03*
%TD*%
%TO.N,unconnected-(TP360-Pad1)*%
%TO.C,TP360*%
X152880000Y-102140000D03*
%TD*%
%TO.N,unconnected-(TP359-Pad1)*%
%TO.C,TP359*%
X150340000Y-102140000D03*
%TD*%
%TO.N,unconnected-(TP358-Pad1)*%
%TO.C,TP358*%
X147800000Y-102140000D03*
%TD*%
%TO.N,unconnected-(TP357-Pad1)*%
%TO.C,TP357*%
X145260000Y-102140000D03*
%TD*%
%TO.N,unconnected-(TP356-Pad1)*%
%TO.C,TP356*%
X142720000Y-102140000D03*
%TD*%
%TO.N,unconnected-(TP355-Pad1)*%
%TO.C,TP355*%
X140180000Y-102140000D03*
%TD*%
%TO.N,unconnected-(TP354-Pad1)*%
%TO.C,TP354*%
X137640000Y-102140000D03*
%TD*%
%TO.N,unconnected-(TP353-Pad1)*%
%TO.C,TP353*%
X135100000Y-102140000D03*
%TD*%
%TO.N,unconnected-(TP352-Pad1)*%
%TO.C,TP352*%
X132560000Y-102140000D03*
%TD*%
%TO.N,unconnected-(TP351-Pad1)*%
%TO.C,TP351*%
X130020000Y-102140000D03*
%TD*%
%TO.N,unconnected-(TP350-Pad1)*%
%TO.C,TP350*%
X127480000Y-102140000D03*
%TD*%
%TO.N,unconnected-(TP349-Pad1)*%
%TO.C,TP349*%
X124940000Y-102140000D03*
%TD*%
%TO.N,unconnected-(TP348-Pad1)*%
%TO.C,TP348*%
X122400000Y-102140000D03*
%TD*%
%TO.N,unconnected-(TP347-Pad1)*%
%TO.C,TP347*%
X119860000Y-102140000D03*
%TD*%
%TO.N,unconnected-(TP346-Pad1)*%
%TO.C,TP346*%
X117320000Y-102140000D03*
%TD*%
%TO.N,unconnected-(TP345-Pad1)*%
%TO.C,TP345*%
X114780000Y-102140000D03*
%TD*%
%TO.N,unconnected-(TP344-Pad1)*%
%TO.C,TP344*%
X112240000Y-102140000D03*
%TD*%
%TO.N,/A*%
%TO.C,TP343*%
X109700000Y-102140000D03*
%TD*%
%TO.N,unconnected-(TP342-Pad1)*%
%TO.C,TP342*%
X107160000Y-102140000D03*
%TD*%
%TO.N,unconnected-(TP341-Pad1)*%
%TO.C,TP341*%
X104620000Y-102140000D03*
%TD*%
%TO.N,unconnected-(TP340-Pad1)*%
%TO.C,TP340*%
X102080000Y-102140000D03*
%TD*%
%TO.N,unconnected-(TP339-Pad1)*%
%TO.C,TP339*%
X99540000Y-102140000D03*
%TD*%
%TO.N,unconnected-(TP338-Pad1)*%
%TO.C,TP338*%
X163040000Y-99600000D03*
%TD*%
%TO.N,unconnected-(TP337-Pad1)*%
%TO.C,TP337*%
X160500000Y-99600000D03*
%TD*%
%TO.N,unconnected-(TP336-Pad1)*%
%TO.C,TP336*%
X157960000Y-99600000D03*
%TD*%
%TO.N,unconnected-(TP335-Pad1)*%
%TO.C,TP335*%
X155420000Y-99600000D03*
%TD*%
%TO.N,unconnected-(TP334-Pad1)*%
%TO.C,TP334*%
X152880000Y-99600000D03*
%TD*%
%TO.N,unconnected-(TP333-Pad1)*%
%TO.C,TP333*%
X150340000Y-99600000D03*
%TD*%
%TO.N,unconnected-(TP332-Pad1)*%
%TO.C,TP332*%
X147800000Y-99600000D03*
%TD*%
%TO.N,/C*%
%TO.C,TP331*%
X145260000Y-99600000D03*
%TD*%
%TO.N,unconnected-(TP330-Pad1)*%
%TO.C,TP330*%
X142720000Y-99600000D03*
%TD*%
%TO.N,unconnected-(TP329-Pad1)*%
%TO.C,TP329*%
X140180000Y-99600000D03*
%TD*%
%TO.N,unconnected-(TP328-Pad1)*%
%TO.C,TP328*%
X137640000Y-99600000D03*
%TD*%
%TO.N,unconnected-(TP327-Pad1)*%
%TO.C,TP327*%
X135100000Y-99600000D03*
%TD*%
%TO.N,unconnected-(TP326-Pad1)*%
%TO.C,TP326*%
X132560000Y-99600000D03*
%TD*%
%TO.N,unconnected-(TP325-Pad1)*%
%TO.C,TP325*%
X130020000Y-99600000D03*
%TD*%
%TO.N,unconnected-(TP324-Pad1)*%
%TO.C,TP324*%
X127480000Y-99600000D03*
%TD*%
%TO.N,unconnected-(TP323-Pad1)*%
%TO.C,TP323*%
X124940000Y-99600000D03*
%TD*%
%TO.N,unconnected-(TP322-Pad1)*%
%TO.C,TP322*%
X122400000Y-99600000D03*
%TD*%
%TO.N,unconnected-(TP321-Pad1)*%
%TO.C,TP321*%
X119860000Y-99600000D03*
%TD*%
%TO.N,unconnected-(TP320-Pad1)*%
%TO.C,TP320*%
X117320000Y-99600000D03*
%TD*%
%TO.N,unconnected-(TP319-Pad1)*%
%TO.C,TP319*%
X114780000Y-99600000D03*
%TD*%
%TO.N,unconnected-(TP318-Pad1)*%
%TO.C,TP318*%
X112240000Y-99600000D03*
%TD*%
%TO.N,unconnected-(TP317-Pad1)*%
%TO.C,TP317*%
X109700000Y-99600000D03*
%TD*%
%TO.N,unconnected-(TP316-Pad1)*%
%TO.C,TP316*%
X107160000Y-99600000D03*
%TD*%
%TO.N,unconnected-(TP315-Pad1)*%
%TO.C,TP315*%
X104620000Y-99600000D03*
%TD*%
%TO.N,unconnected-(TP314-Pad1)*%
%TO.C,TP314*%
X102080000Y-99600000D03*
%TD*%
%TO.N,unconnected-(TP313-Pad1)*%
%TO.C,TP313*%
X99540000Y-99600000D03*
%TD*%
%TO.N,unconnected-(TP312-Pad1)*%
%TO.C,TP312*%
X163040000Y-97060000D03*
%TD*%
%TO.N,unconnected-(TP311-Pad1)*%
%TO.C,TP311*%
X160500000Y-97060000D03*
%TD*%
%TO.N,unconnected-(TP310-Pad1)*%
%TO.C,TP310*%
X157960000Y-97060000D03*
%TD*%
%TO.N,unconnected-(TP309-Pad1)*%
%TO.C,TP309*%
X155420000Y-97060000D03*
%TD*%
%TO.N,unconnected-(TP308-Pad1)*%
%TO.C,TP308*%
X152880000Y-97060000D03*
%TD*%
%TO.N,unconnected-(TP307-Pad1)*%
%TO.C,TP307*%
X150340000Y-97060000D03*
%TD*%
%TO.N,unconnected-(TP306-Pad1)*%
%TO.C,TP306*%
X147800000Y-97060000D03*
%TD*%
%TO.N,unconnected-(TP305-Pad1)*%
%TO.C,TP305*%
X145260000Y-97060000D03*
%TD*%
%TO.N,unconnected-(TP304-Pad1)*%
%TO.C,TP304*%
X142720000Y-97060000D03*
%TD*%
%TO.N,unconnected-(TP303-Pad1)*%
%TO.C,TP303*%
X140180000Y-97060000D03*
%TD*%
%TO.N,unconnected-(TP302-Pad1)*%
%TO.C,TP302*%
X137640000Y-97060000D03*
%TD*%
%TO.N,unconnected-(TP301-Pad1)*%
%TO.C,TP301*%
X135100000Y-97060000D03*
%TD*%
%TO.N,unconnected-(TP300-Pad1)*%
%TO.C,TP300*%
X132560000Y-97060000D03*
%TD*%
%TO.N,unconnected-(TP299-Pad1)*%
%TO.C,TP299*%
X130020000Y-97060000D03*
%TD*%
%TO.N,unconnected-(TP298-Pad1)*%
%TO.C,TP298*%
X127480000Y-97060000D03*
%TD*%
%TO.N,unconnected-(TP297-Pad1)*%
%TO.C,TP297*%
X124940000Y-97060000D03*
%TD*%
%TO.N,unconnected-(TP296-Pad1)*%
%TO.C,TP296*%
X122400000Y-97060000D03*
%TD*%
%TO.N,unconnected-(TP295-Pad1)*%
%TO.C,TP295*%
X119860000Y-97060000D03*
%TD*%
%TO.N,unconnected-(TP294-Pad1)*%
%TO.C,TP294*%
X117320000Y-97060000D03*
%TD*%
%TO.N,unconnected-(TP293-Pad1)*%
%TO.C,TP293*%
X114780000Y-97060000D03*
%TD*%
%TO.N,unconnected-(TP292-Pad1)*%
%TO.C,TP292*%
X112240000Y-97060000D03*
%TD*%
%TO.N,unconnected-(TP291-Pad1)*%
%TO.C,TP291*%
X109700000Y-97060000D03*
%TD*%
%TO.N,unconnected-(TP290-Pad1)*%
%TO.C,TP290*%
X107160000Y-97060000D03*
%TD*%
%TO.N,unconnected-(TP289-Pad1)*%
%TO.C,TP289*%
X104620000Y-97060000D03*
%TD*%
%TO.N,unconnected-(TP288-Pad1)*%
%TO.C,TP288*%
X102080000Y-97060000D03*
%TD*%
%TO.N,unconnected-(TP287-Pad1)*%
%TO.C,TP287*%
X99540000Y-97060000D03*
%TD*%
%TO.N,unconnected-(TP286-Pad1)*%
%TO.C,TP286*%
X163040000Y-94520000D03*
%TD*%
%TO.N,unconnected-(TP285-Pad1)*%
%TO.C,TP285*%
X160500000Y-94520000D03*
%TD*%
%TO.N,unconnected-(TP284-Pad1)*%
%TO.C,TP284*%
X157960000Y-94520000D03*
%TD*%
%TO.N,unconnected-(TP283-Pad1)*%
%TO.C,TP283*%
X155420000Y-94520000D03*
%TD*%
%TO.N,unconnected-(TP282-Pad1)*%
%TO.C,TP282*%
X152880000Y-94520000D03*
%TD*%
%TO.N,unconnected-(TP281-Pad1)*%
%TO.C,TP281*%
X150340000Y-94520000D03*
%TD*%
%TO.N,unconnected-(TP280-Pad1)*%
%TO.C,TP280*%
X147800000Y-94520000D03*
%TD*%
%TO.N,unconnected-(TP279-Pad1)*%
%TO.C,TP279*%
X145260000Y-94520000D03*
%TD*%
%TO.N,unconnected-(TP278-Pad1)*%
%TO.C,TP278*%
X142720000Y-94520000D03*
%TD*%
%TO.N,unconnected-(TP277-Pad1)*%
%TO.C,TP277*%
X140180000Y-94520000D03*
%TD*%
%TO.N,unconnected-(TP276-Pad1)*%
%TO.C,TP276*%
X137640000Y-94520000D03*
%TD*%
%TO.N,unconnected-(TP275-Pad1)*%
%TO.C,TP275*%
X135100000Y-94520000D03*
%TD*%
%TO.N,/B*%
%TO.C,TP274*%
X132560000Y-94520000D03*
%TD*%
%TO.N,unconnected-(TP273-Pad1)*%
%TO.C,TP273*%
X130020000Y-94520000D03*
%TD*%
%TO.N,unconnected-(TP272-Pad1)*%
%TO.C,TP272*%
X127480000Y-94520000D03*
%TD*%
%TO.N,unconnected-(TP271-Pad1)*%
%TO.C,TP271*%
X124940000Y-94520000D03*
%TD*%
%TO.N,unconnected-(TP270-Pad1)*%
%TO.C,TP270*%
X122400000Y-94520000D03*
%TD*%
%TO.N,unconnected-(TP269-Pad1)*%
%TO.C,TP269*%
X119860000Y-94520000D03*
%TD*%
%TO.N,unconnected-(TP268-Pad1)*%
%TO.C,TP268*%
X117320000Y-94520000D03*
%TD*%
%TO.N,unconnected-(TP267-Pad1)*%
%TO.C,TP267*%
X114780000Y-94520000D03*
%TD*%
%TO.N,unconnected-(TP266-Pad1)*%
%TO.C,TP266*%
X112240000Y-94520000D03*
%TD*%
%TO.N,unconnected-(TP265-Pad1)*%
%TO.C,TP265*%
X109700000Y-94520000D03*
%TD*%
%TO.N,unconnected-(TP264-Pad1)*%
%TO.C,TP264*%
X107160000Y-94520000D03*
%TD*%
%TO.N,unconnected-(TP263-Pad1)*%
%TO.C,TP263*%
X104620000Y-94520000D03*
%TD*%
%TO.N,unconnected-(TP262-Pad1)*%
%TO.C,TP262*%
X102080000Y-94520000D03*
%TD*%
%TO.N,unconnected-(TP261-Pad1)*%
%TO.C,TP261*%
X99540000Y-94520000D03*
%TD*%
%TO.N,unconnected-(TP260-Pad1)*%
%TO.C,TP260*%
X163040000Y-91980000D03*
%TD*%
%TO.N,unconnected-(TP259-Pad1)*%
%TO.C,TP259*%
X160500000Y-91980000D03*
%TD*%
%TO.N,unconnected-(TP258-Pad1)*%
%TO.C,TP258*%
X157960000Y-91980000D03*
%TD*%
%TO.N,unconnected-(TP257-Pad1)*%
%TO.C,TP257*%
X155420000Y-91980000D03*
%TD*%
%TO.N,unconnected-(TP256-Pad1)*%
%TO.C,TP256*%
X152880000Y-91980000D03*
%TD*%
%TO.N,unconnected-(TP255-Pad1)*%
%TO.C,TP255*%
X150340000Y-91980000D03*
%TD*%
%TO.N,unconnected-(TP254-Pad1)*%
%TO.C,TP254*%
X147800000Y-91980000D03*
%TD*%
%TO.N,unconnected-(TP253-Pad1)*%
%TO.C,TP253*%
X145260000Y-91980000D03*
%TD*%
%TO.N,unconnected-(TP252-Pad1)*%
%TO.C,TP252*%
X142720000Y-91980000D03*
%TD*%
%TO.N,unconnected-(TP251-Pad1)*%
%TO.C,TP251*%
X140180000Y-91980000D03*
%TD*%
%TO.N,unconnected-(TP250-Pad1)*%
%TO.C,TP250*%
X137640000Y-91980000D03*
%TD*%
%TO.N,unconnected-(TP249-Pad1)*%
%TO.C,TP249*%
X135100000Y-91980000D03*
%TD*%
%TO.N,unconnected-(TP248-Pad1)*%
%TO.C,TP248*%
X132560000Y-91980000D03*
%TD*%
%TO.N,unconnected-(TP247-Pad1)*%
%TO.C,TP247*%
X130020000Y-91980000D03*
%TD*%
%TO.N,unconnected-(TP246-Pad1)*%
%TO.C,TP246*%
X127480000Y-91980000D03*
%TD*%
%TO.N,unconnected-(TP245-Pad1)*%
%TO.C,TP245*%
X124940000Y-91980000D03*
%TD*%
%TO.N,unconnected-(TP244-Pad1)*%
%TO.C,TP244*%
X122400000Y-91980000D03*
%TD*%
%TO.N,unconnected-(TP243-Pad1)*%
%TO.C,TP243*%
X119860000Y-91980000D03*
%TD*%
%TO.N,unconnected-(TP242-Pad1)*%
%TO.C,TP242*%
X117320000Y-91980000D03*
%TD*%
%TO.N,unconnected-(TP241-Pad1)*%
%TO.C,TP241*%
X114780000Y-91980000D03*
%TD*%
%TO.N,unconnected-(TP240-Pad1)*%
%TO.C,TP240*%
X112240000Y-91980000D03*
%TD*%
%TO.N,unconnected-(TP239-Pad1)*%
%TO.C,TP239*%
X109700000Y-91980000D03*
%TD*%
%TO.N,unconnected-(TP238-Pad1)*%
%TO.C,TP238*%
X107160000Y-91980000D03*
%TD*%
%TO.N,unconnected-(TP237-Pad1)*%
%TO.C,TP237*%
X104620000Y-91980000D03*
%TD*%
%TO.N,unconnected-(TP236-Pad1)*%
%TO.C,TP236*%
X102080000Y-91980000D03*
%TD*%
%TO.N,unconnected-(TP235-Pad1)*%
%TO.C,TP235*%
X99540000Y-91980000D03*
%TD*%
%TO.N,unconnected-(TP234-Pad1)*%
%TO.C,TP234*%
X163040000Y-89440000D03*
%TD*%
%TO.N,unconnected-(TP233-Pad1)*%
%TO.C,TP233*%
X160500000Y-89440000D03*
%TD*%
%TO.N,unconnected-(TP232-Pad1)*%
%TO.C,TP232*%
X157960000Y-89440000D03*
%TD*%
%TO.N,unconnected-(TP231-Pad1)*%
%TO.C,TP231*%
X155420000Y-89440000D03*
%TD*%
%TO.N,unconnected-(TP230-Pad1)*%
%TO.C,TP230*%
X152880000Y-89440000D03*
%TD*%
%TO.N,unconnected-(TP229-Pad1)*%
%TO.C,TP229*%
X150340000Y-89440000D03*
%TD*%
%TO.N,unconnected-(TP228-Pad1)*%
%TO.C,TP228*%
X147800000Y-89440000D03*
%TD*%
%TO.N,unconnected-(TP227-Pad1)*%
%TO.C,TP227*%
X145260000Y-89440000D03*
%TD*%
%TO.N,unconnected-(TP226-Pad1)*%
%TO.C,TP226*%
X142720000Y-89440000D03*
%TD*%
%TO.N,unconnected-(TP225-Pad1)*%
%TO.C,TP225*%
X140180000Y-89440000D03*
%TD*%
%TO.N,unconnected-(TP224-Pad1)*%
%TO.C,TP224*%
X137640000Y-89440000D03*
%TD*%
%TO.N,unconnected-(TP223-Pad1)*%
%TO.C,TP223*%
X135100000Y-89440000D03*
%TD*%
%TO.N,unconnected-(TP222-Pad1)*%
%TO.C,TP222*%
X132560000Y-89440000D03*
%TD*%
%TO.N,unconnected-(TP221-Pad1)*%
%TO.C,TP221*%
X130020000Y-89440000D03*
%TD*%
%TO.N,unconnected-(TP220-Pad1)*%
%TO.C,TP220*%
X127480000Y-89440000D03*
%TD*%
%TO.N,unconnected-(TP219-Pad1)*%
%TO.C,TP219*%
X124940000Y-89440000D03*
%TD*%
%TO.N,unconnected-(TP218-Pad1)*%
%TO.C,TP218*%
X122400000Y-89440000D03*
%TD*%
%TO.N,unconnected-(TP217-Pad1)*%
%TO.C,TP217*%
X119860000Y-89440000D03*
%TD*%
%TO.N,unconnected-(TP216-Pad1)*%
%TO.C,TP216*%
X117320000Y-89440000D03*
%TD*%
%TO.N,unconnected-(TP215-Pad1)*%
%TO.C,TP215*%
X114780000Y-89440000D03*
%TD*%
%TO.N,unconnected-(TP214-Pad1)*%
%TO.C,TP214*%
X112240000Y-89440000D03*
%TD*%
%TO.N,unconnected-(TP213-Pad1)*%
%TO.C,TP213*%
X109700000Y-89440000D03*
%TD*%
%TO.N,unconnected-(TP212-Pad1)*%
%TO.C,TP212*%
X107160000Y-89440000D03*
%TD*%
%TO.N,unconnected-(TP211-Pad1)*%
%TO.C,TP211*%
X104620000Y-89440000D03*
%TD*%
%TO.N,unconnected-(TP210-Pad1)*%
%TO.C,TP210*%
X102080000Y-89440000D03*
%TD*%
%TO.N,/A*%
%TO.C,TP209*%
X99540000Y-89440000D03*
%TD*%
%TO.N,unconnected-(TP208-Pad1)*%
%TO.C,TP208*%
X163040000Y-86900000D03*
%TD*%
%TO.N,unconnected-(TP207-Pad1)*%
%TO.C,TP207*%
X160500000Y-86900000D03*
%TD*%
%TO.N,unconnected-(TP206-Pad1)*%
%TO.C,TP206*%
X157960000Y-86900000D03*
%TD*%
%TO.N,unconnected-(TP205-Pad1)*%
%TO.C,TP205*%
X155420000Y-86900000D03*
%TD*%
%TO.N,unconnected-(TP204-Pad1)*%
%TO.C,TP204*%
X152880000Y-86900000D03*
%TD*%
%TO.N,unconnected-(TP203-Pad1)*%
%TO.C,TP203*%
X150340000Y-86900000D03*
%TD*%
%TO.N,unconnected-(TP202-Pad1)*%
%TO.C,TP202*%
X147800000Y-86900000D03*
%TD*%
%TO.N,unconnected-(TP201-Pad1)*%
%TO.C,TP201*%
X145260000Y-86900000D03*
%TD*%
%TO.N,unconnected-(TP200-Pad1)*%
%TO.C,TP200*%
X142720000Y-86900000D03*
%TD*%
%TO.N,unconnected-(TP199-Pad1)*%
%TO.C,TP199*%
X140180000Y-86900000D03*
%TD*%
%TO.N,unconnected-(TP198-Pad1)*%
%TO.C,TP198*%
X137640000Y-86900000D03*
%TD*%
%TO.N,unconnected-(TP197-Pad1)*%
%TO.C,TP197*%
X135100000Y-86900000D03*
%TD*%
%TO.N,unconnected-(TP196-Pad1)*%
%TO.C,TP196*%
X132560000Y-86900000D03*
%TD*%
%TO.N,unconnected-(TP195-Pad1)*%
%TO.C,TP195*%
X130020000Y-86900000D03*
%TD*%
%TO.N,unconnected-(TP194-Pad1)*%
%TO.C,TP194*%
X127480000Y-86900000D03*
%TD*%
%TO.N,unconnected-(TP193-Pad1)*%
%TO.C,TP193*%
X124940000Y-86900000D03*
%TD*%
%TO.N,unconnected-(TP192-Pad1)*%
%TO.C,TP192*%
X122400000Y-86900000D03*
%TD*%
%TO.N,unconnected-(TP191-Pad1)*%
%TO.C,TP191*%
X119860000Y-86900000D03*
%TD*%
%TO.N,unconnected-(TP190-Pad1)*%
%TO.C,TP190*%
X117320000Y-86900000D03*
%TD*%
%TO.N,unconnected-(TP189-Pad1)*%
%TO.C,TP189*%
X114780000Y-86900000D03*
%TD*%
%TO.N,unconnected-(TP188-Pad1)*%
%TO.C,TP188*%
X112240000Y-86900000D03*
%TD*%
%TO.N,unconnected-(TP187-Pad1)*%
%TO.C,TP187*%
X109700000Y-86900000D03*
%TD*%
%TO.N,unconnected-(TP186-Pad1)*%
%TO.C,TP186*%
X107160000Y-86900000D03*
%TD*%
%TO.N,unconnected-(TP185-Pad1)*%
%TO.C,TP185*%
X104620000Y-86900000D03*
%TD*%
%TO.N,unconnected-(TP184-Pad1)*%
%TO.C,TP184*%
X102080000Y-86900000D03*
%TD*%
%TO.N,unconnected-(TP183-Pad1)*%
%TO.C,TP183*%
X99540000Y-86900000D03*
%TD*%
%TO.N,unconnected-(TP182-Pad1)*%
%TO.C,TP182*%
X163040000Y-84360000D03*
%TD*%
%TO.N,unconnected-(TP181-Pad1)*%
%TO.C,TP181*%
X160500000Y-84360000D03*
%TD*%
%TO.N,unconnected-(TP180-Pad1)*%
%TO.C,TP180*%
X157960000Y-84360000D03*
%TD*%
%TO.N,unconnected-(TP179-Pad1)*%
%TO.C,TP179*%
X155420000Y-84360000D03*
%TD*%
%TO.N,unconnected-(TP178-Pad1)*%
%TO.C,TP178*%
X152880000Y-84360000D03*
%TD*%
%TO.N,unconnected-(TP177-Pad1)*%
%TO.C,TP177*%
X150340000Y-84360000D03*
%TD*%
%TO.N,unconnected-(TP176-Pad1)*%
%TO.C,TP176*%
X147800000Y-84360000D03*
%TD*%
%TO.N,unconnected-(TP175-Pad1)*%
%TO.C,TP175*%
X145260000Y-84360000D03*
%TD*%
%TO.N,unconnected-(TP174-Pad1)*%
%TO.C,TP174*%
X142720000Y-84360000D03*
%TD*%
%TO.N,unconnected-(TP173-Pad1)*%
%TO.C,TP173*%
X140180000Y-84360000D03*
%TD*%
%TO.N,unconnected-(TP172-Pad1)*%
%TO.C,TP172*%
X137640000Y-84360000D03*
%TD*%
%TO.N,unconnected-(TP171-Pad1)*%
%TO.C,TP171*%
X135100000Y-84360000D03*
%TD*%
%TO.N,unconnected-(TP170-Pad1)*%
%TO.C,TP170*%
X132560000Y-84360000D03*
%TD*%
%TO.N,unconnected-(TP169-Pad1)*%
%TO.C,TP169*%
X130020000Y-84360000D03*
%TD*%
%TO.N,/F*%
%TO.C,TP168*%
X127480000Y-84360000D03*
%TD*%
%TO.N,unconnected-(TP167-Pad1)*%
%TO.C,TP167*%
X124940000Y-84360000D03*
%TD*%
%TO.N,unconnected-(TP166-Pad1)*%
%TO.C,TP166*%
X122400000Y-84360000D03*
%TD*%
%TO.N,unconnected-(TP165-Pad1)*%
%TO.C,TP165*%
X119860000Y-84360000D03*
%TD*%
%TO.N,unconnected-(TP164-Pad1)*%
%TO.C,TP164*%
X117320000Y-84360000D03*
%TD*%
%TO.N,unconnected-(TP163-Pad1)*%
%TO.C,TP163*%
X114780000Y-84360000D03*
%TD*%
%TO.N,unconnected-(TP162-Pad1)*%
%TO.C,TP162*%
X112240000Y-84360000D03*
%TD*%
%TO.N,unconnected-(TP161-Pad1)*%
%TO.C,TP161*%
X109700000Y-84360000D03*
%TD*%
%TO.N,unconnected-(TP160-Pad1)*%
%TO.C,TP160*%
X107160000Y-84360000D03*
%TD*%
%TO.N,unconnected-(TP159-Pad1)*%
%TO.C,TP159*%
X104620000Y-84360000D03*
%TD*%
%TO.N,unconnected-(TP158-Pad1)*%
%TO.C,TP158*%
X102080000Y-84360000D03*
%TD*%
%TO.N,unconnected-(TP157-Pad1)*%
%TO.C,TP157*%
X99540000Y-84360000D03*
%TD*%
%TO.N,unconnected-(TP156-Pad1)*%
%TO.C,TP156*%
X163040000Y-81820000D03*
%TD*%
%TO.N,unconnected-(TP155-Pad1)*%
%TO.C,TP155*%
X160500000Y-81820000D03*
%TD*%
%TO.N,unconnected-(TP154-Pad1)*%
%TO.C,TP154*%
X157960000Y-81820000D03*
%TD*%
%TO.N,unconnected-(TP153-Pad1)*%
%TO.C,TP153*%
X155420000Y-81820000D03*
%TD*%
%TO.N,unconnected-(TP152-Pad1)*%
%TO.C,TP152*%
X152880000Y-81820000D03*
%TD*%
%TO.N,unconnected-(TP151-Pad1)*%
%TO.C,TP151*%
X150340000Y-81820000D03*
%TD*%
%TO.N,unconnected-(TP150-Pad1)*%
%TO.C,TP150*%
X147800000Y-81820000D03*
%TD*%
%TO.N,unconnected-(TP149-Pad1)*%
%TO.C,TP149*%
X145260000Y-81820000D03*
%TD*%
%TO.N,unconnected-(TP148-Pad1)*%
%TO.C,TP148*%
X142720000Y-81820000D03*
%TD*%
%TO.N,unconnected-(TP147-Pad1)*%
%TO.C,TP147*%
X140180000Y-81820000D03*
%TD*%
%TO.N,unconnected-(TP146-Pad1)*%
%TO.C,TP146*%
X137640000Y-81820000D03*
%TD*%
%TO.N,unconnected-(TP145-Pad1)*%
%TO.C,TP145*%
X135100000Y-81820000D03*
%TD*%
%TO.N,unconnected-(TP144-Pad1)*%
%TO.C,TP144*%
X132560000Y-81820000D03*
%TD*%
%TO.N,unconnected-(TP143-Pad1)*%
%TO.C,TP143*%
X130020000Y-81820000D03*
%TD*%
%TO.N,unconnected-(TP142-Pad1)*%
%TO.C,TP142*%
X127480000Y-81820000D03*
%TD*%
%TO.N,/F*%
%TO.C,TP141*%
X124940000Y-81820000D03*
%TD*%
%TO.N,unconnected-(TP140-Pad1)*%
%TO.C,TP140*%
X122400000Y-81820000D03*
%TD*%
%TO.N,unconnected-(TP139-Pad1)*%
%TO.C,TP139*%
X119860000Y-81820000D03*
%TD*%
%TO.N,unconnected-(TP138-Pad1)*%
%TO.C,TP138*%
X117320000Y-81820000D03*
%TD*%
%TO.N,unconnected-(TP137-Pad1)*%
%TO.C,TP137*%
X114780000Y-81820000D03*
%TD*%
%TO.N,unconnected-(TP136-Pad1)*%
%TO.C,TP136*%
X112240000Y-81820000D03*
%TD*%
%TO.N,unconnected-(TP135-Pad1)*%
%TO.C,TP135*%
X109700000Y-81820000D03*
%TD*%
%TO.N,unconnected-(TP134-Pad1)*%
%TO.C,TP134*%
X107160000Y-81820000D03*
%TD*%
%TO.N,unconnected-(TP133-Pad1)*%
%TO.C,TP133*%
X104620000Y-81820000D03*
%TD*%
%TO.N,unconnected-(TP132-Pad1)*%
%TO.C,TP132*%
X102080000Y-81820000D03*
%TD*%
%TO.N,unconnected-(TP131-Pad1)*%
%TO.C,TP131*%
X99540000Y-81820000D03*
%TD*%
%TO.N,unconnected-(TP130-Pad1)*%
%TO.C,TP130*%
X163040000Y-79280000D03*
%TD*%
%TO.N,unconnected-(TP129-Pad1)*%
%TO.C,TP129*%
X160500000Y-79280000D03*
%TD*%
%TO.N,unconnected-(TP128-Pad1)*%
%TO.C,TP128*%
X157960000Y-79280000D03*
%TD*%
%TO.N,unconnected-(TP127-Pad1)*%
%TO.C,TP127*%
X155420000Y-79280000D03*
%TD*%
%TO.N,unconnected-(TP126-Pad1)*%
%TO.C,TP126*%
X152880000Y-79280000D03*
%TD*%
%TO.N,unconnected-(TP125-Pad1)*%
%TO.C,TP125*%
X150340000Y-79280000D03*
%TD*%
%TO.N,unconnected-(TP124-Pad1)*%
%TO.C,TP124*%
X147800000Y-79280000D03*
%TD*%
%TO.N,unconnected-(TP123-Pad1)*%
%TO.C,TP123*%
X145260000Y-79280000D03*
%TD*%
%TO.N,unconnected-(TP122-Pad1)*%
%TO.C,TP122*%
X142720000Y-79280000D03*
%TD*%
%TO.N,unconnected-(TP121-Pad1)*%
%TO.C,TP121*%
X140180000Y-79280000D03*
%TD*%
%TO.N,unconnected-(TP120-Pad1)*%
%TO.C,TP120*%
X137640000Y-79280000D03*
%TD*%
%TO.N,unconnected-(TP119-Pad1)*%
%TO.C,TP119*%
X135100000Y-79280000D03*
%TD*%
%TO.N,unconnected-(TP118-Pad1)*%
%TO.C,TP118*%
X132560000Y-79280000D03*
%TD*%
%TO.N,unconnected-(TP117-Pad1)*%
%TO.C,TP117*%
X130020000Y-79280000D03*
%TD*%
%TO.N,/F*%
%TO.C,TP116*%
X127480000Y-79280000D03*
%TD*%
%TO.N,unconnected-(TP115-Pad1)*%
%TO.C,TP115*%
X124940000Y-79280000D03*
%TD*%
%TO.N,unconnected-(TP114-Pad1)*%
%TO.C,TP114*%
X122400000Y-79280000D03*
%TD*%
%TO.N,unconnected-(TP113-Pad1)*%
%TO.C,TP113*%
X119860000Y-79280000D03*
%TD*%
%TO.N,unconnected-(TP112-Pad1)*%
%TO.C,TP112*%
X117320000Y-79280000D03*
%TD*%
%TO.N,unconnected-(TP111-Pad1)*%
%TO.C,TP111*%
X114780000Y-79280000D03*
%TD*%
%TO.N,unconnected-(TP110-Pad1)*%
%TO.C,TP110*%
X112240000Y-79280000D03*
%TD*%
%TO.N,unconnected-(TP109-Pad1)*%
%TO.C,TP109*%
X109700000Y-79280000D03*
%TD*%
%TO.N,unconnected-(TP108-Pad1)*%
%TO.C,TP108*%
X107160000Y-79280000D03*
%TD*%
%TO.N,unconnected-(TP107-Pad1)*%
%TO.C,TP107*%
X104620000Y-79280000D03*
%TD*%
%TO.N,unconnected-(TP106-Pad1)*%
%TO.C,TP106*%
X102080000Y-79280000D03*
%TD*%
%TO.N,unconnected-(TP105-Pad1)*%
%TO.C,TP105*%
X99540000Y-79280000D03*
%TD*%
%TO.N,unconnected-(TP104-Pad1)*%
%TO.C,TP104*%
X163040000Y-76740000D03*
%TD*%
%TO.N,unconnected-(TP103-Pad1)*%
%TO.C,TP103*%
X160500000Y-76740000D03*
%TD*%
%TO.N,unconnected-(TP102-Pad1)*%
%TO.C,TP102*%
X157960000Y-76740000D03*
%TD*%
%TO.N,unconnected-(TP101-Pad1)*%
%TO.C,TP101*%
X155420000Y-76740000D03*
%TD*%
%TO.N,unconnected-(TP100-Pad1)*%
%TO.C,TP100*%
X152880000Y-76740000D03*
%TD*%
%TO.N,unconnected-(TP99-Pad1)*%
%TO.C,TP99*%
X150340000Y-76740000D03*
%TD*%
%TO.N,unconnected-(TP98-Pad1)*%
%TO.C,TP98*%
X147800000Y-76740000D03*
%TD*%
%TO.N,unconnected-(TP97-Pad1)*%
%TO.C,TP97*%
X145260000Y-76740000D03*
%TD*%
%TO.N,unconnected-(TP96-Pad1)*%
%TO.C,TP96*%
X142720000Y-76740000D03*
%TD*%
%TO.N,unconnected-(TP95-Pad1)*%
%TO.C,TP95*%
X140180000Y-76740000D03*
%TD*%
%TO.N,unconnected-(TP94-Pad1)*%
%TO.C,TP94*%
X137640000Y-76740000D03*
%TD*%
%TO.N,unconnected-(TP93-Pad1)*%
%TO.C,TP93*%
X135100000Y-76740000D03*
%TD*%
%TO.N,unconnected-(TP92-Pad1)*%
%TO.C,TP92*%
X132560000Y-76740000D03*
%TD*%
%TO.N,unconnected-(TP91-Pad1)*%
%TO.C,TP91*%
X130020000Y-76740000D03*
%TD*%
%TO.N,unconnected-(TP90-Pad1)*%
%TO.C,TP90*%
X127480000Y-76740000D03*
%TD*%
%TO.N,/F*%
%TO.C,TP89*%
X124940000Y-76740000D03*
%TD*%
%TO.N,unconnected-(TP88-Pad1)*%
%TO.C,TP88*%
X122400000Y-76740000D03*
%TD*%
%TO.N,unconnected-(TP87-Pad1)*%
%TO.C,TP87*%
X119860000Y-76740000D03*
%TD*%
%TO.N,unconnected-(TP86-Pad1)*%
%TO.C,TP86*%
X117320000Y-76740000D03*
%TD*%
%TO.N,unconnected-(TP85-Pad1)*%
%TO.C,TP85*%
X114780000Y-76740000D03*
%TD*%
%TO.N,unconnected-(TP84-Pad1)*%
%TO.C,TP84*%
X112240000Y-76740000D03*
%TD*%
%TO.N,unconnected-(TP83-Pad1)*%
%TO.C,TP83*%
X109700000Y-76740000D03*
%TD*%
%TO.N,unconnected-(TP82-Pad1)*%
%TO.C,TP82*%
X107160000Y-76740000D03*
%TD*%
%TO.N,unconnected-(TP81-Pad1)*%
%TO.C,TP81*%
X104620000Y-76740000D03*
%TD*%
%TO.N,unconnected-(TP80-Pad1)*%
%TO.C,TP80*%
X102080000Y-76740000D03*
%TD*%
%TO.N,unconnected-(TP79-Pad1)*%
%TO.C,TP79*%
X99540000Y-76740000D03*
%TD*%
%TO.N,unconnected-(TP78-Pad1)*%
%TO.C,TP78*%
X163040000Y-74200000D03*
%TD*%
%TO.N,unconnected-(TP77-Pad1)*%
%TO.C,TP77*%
X160500000Y-74200000D03*
%TD*%
%TO.N,unconnected-(TP76-Pad1)*%
%TO.C,TP76*%
X157960000Y-74200000D03*
%TD*%
%TO.N,unconnected-(TP75-Pad1)*%
%TO.C,TP75*%
X155420000Y-74200000D03*
%TD*%
%TO.N,unconnected-(TP74-Pad1)*%
%TO.C,TP74*%
X152880000Y-74200000D03*
%TD*%
%TO.N,unconnected-(TP73-Pad1)*%
%TO.C,TP73*%
X150340000Y-74200000D03*
%TD*%
%TO.N,unconnected-(TP72-Pad1)*%
%TO.C,TP72*%
X147800000Y-74200000D03*
%TD*%
%TO.N,unconnected-(TP71-Pad1)*%
%TO.C,TP71*%
X145260000Y-74200000D03*
%TD*%
%TO.N,unconnected-(TP70-Pad1)*%
%TO.C,TP70*%
X142720000Y-74200000D03*
%TD*%
%TO.N,/B*%
%TO.C,TP69*%
X140180000Y-74200000D03*
%TD*%
%TO.N,unconnected-(TP68-Pad1)*%
%TO.C,TP68*%
X137640000Y-74200000D03*
%TD*%
%TO.N,unconnected-(TP67-Pad1)*%
%TO.C,TP67*%
X135100000Y-74200000D03*
%TD*%
%TO.N,unconnected-(TP66-Pad1)*%
%TO.C,TP66*%
X132560000Y-74200000D03*
%TD*%
%TO.N,unconnected-(TP65-Pad1)*%
%TO.C,TP65*%
X130020000Y-74200000D03*
%TD*%
%TO.N,unconnected-(TP64-Pad1)*%
%TO.C,TP64*%
X127480000Y-74200000D03*
%TD*%
%TO.N,unconnected-(TP63-Pad1)*%
%TO.C,TP63*%
X124940000Y-74200000D03*
%TD*%
%TO.N,unconnected-(TP62-Pad1)*%
%TO.C,TP62*%
X122400000Y-74200000D03*
%TD*%
%TO.N,unconnected-(TP61-Pad1)*%
%TO.C,TP61*%
X119860000Y-74200000D03*
%TD*%
%TO.N,unconnected-(TP60-Pad1)*%
%TO.C,TP60*%
X117320000Y-74200000D03*
%TD*%
%TO.N,unconnected-(TP59-Pad1)*%
%TO.C,TP59*%
X114780000Y-74200000D03*
%TD*%
%TO.N,unconnected-(TP58-Pad1)*%
%TO.C,TP58*%
X112240000Y-74200000D03*
%TD*%
%TO.N,unconnected-(TP57-Pad1)*%
%TO.C,TP57*%
X109700000Y-74200000D03*
%TD*%
%TO.N,unconnected-(TP56-Pad1)*%
%TO.C,TP56*%
X107160000Y-74200000D03*
%TD*%
%TO.N,unconnected-(TP55-Pad1)*%
%TO.C,TP55*%
X104620000Y-74200000D03*
%TD*%
%TO.N,unconnected-(TP54-Pad1)*%
%TO.C,TP54*%
X102080000Y-74200000D03*
%TD*%
%TO.N,unconnected-(TP53-Pad1)*%
%TO.C,TP53*%
X99540000Y-74200000D03*
%TD*%
%TO.N,unconnected-(TP52-Pad1)*%
%TO.C,TP52*%
X163040000Y-71660000D03*
%TD*%
%TO.N,/E*%
%TO.C,TP51*%
X160500000Y-71660000D03*
%TD*%
%TO.N,unconnected-(TP50-Pad1)*%
%TO.C,TP50*%
X157960000Y-71660000D03*
%TD*%
%TO.N,unconnected-(TP49-Pad1)*%
%TO.C,TP49*%
X155420000Y-71660000D03*
%TD*%
%TO.N,unconnected-(TP48-Pad1)*%
%TO.C,TP48*%
X152880000Y-71660000D03*
%TD*%
%TO.N,unconnected-(TP47-Pad1)*%
%TO.C,TP47*%
X150340000Y-71660000D03*
%TD*%
%TO.N,unconnected-(TP46-Pad1)*%
%TO.C,TP46*%
X147800000Y-71660000D03*
%TD*%
%TO.N,unconnected-(TP45-Pad1)*%
%TO.C,TP45*%
X145260000Y-71660000D03*
%TD*%
%TO.N,unconnected-(TP44-Pad1)*%
%TO.C,TP44*%
X142720000Y-71660000D03*
%TD*%
%TO.N,unconnected-(TP43-Pad1)*%
%TO.C,TP43*%
X140180000Y-71660000D03*
%TD*%
%TO.N,unconnected-(TP42-Pad1)*%
%TO.C,TP42*%
X137640000Y-71660000D03*
%TD*%
%TO.N,unconnected-(TP41-Pad1)*%
%TO.C,TP41*%
X135100000Y-71660000D03*
%TD*%
%TO.N,unconnected-(TP40-Pad1)*%
%TO.C,TP40*%
X132560000Y-71660000D03*
%TD*%
%TO.N,unconnected-(TP39-Pad1)*%
%TO.C,TP39*%
X130020000Y-71660000D03*
%TD*%
%TO.N,unconnected-(TP38-Pad1)*%
%TO.C,TP38*%
X127480000Y-71660000D03*
%TD*%
%TO.N,unconnected-(TP37-Pad1)*%
%TO.C,TP37*%
X124940000Y-71660000D03*
%TD*%
%TO.N,unconnected-(TP36-Pad1)*%
%TO.C,TP36*%
X122400000Y-71660000D03*
%TD*%
%TO.N,unconnected-(TP35-Pad1)*%
%TO.C,TP35*%
X119860000Y-71660000D03*
%TD*%
%TO.N,unconnected-(TP34-Pad1)*%
%TO.C,TP34*%
X117320000Y-71660000D03*
%TD*%
%TO.N,unconnected-(TP33-Pad1)*%
%TO.C,TP33*%
X114780000Y-71660000D03*
%TD*%
%TO.N,unconnected-(TP32-Pad1)*%
%TO.C,TP32*%
X112240000Y-71660000D03*
%TD*%
%TO.N,unconnected-(TP31-Pad1)*%
%TO.C,TP31*%
X109700000Y-71660000D03*
%TD*%
%TO.N,unconnected-(TP30-Pad1)*%
%TO.C,TP30*%
X107160000Y-71660000D03*
%TD*%
%TO.N,unconnected-(TP29-Pad1)*%
%TO.C,TP29*%
X104620000Y-71660000D03*
%TD*%
%TO.N,unconnected-(TP28-Pad1)*%
%TO.C,TP28*%
X102080000Y-71660000D03*
%TD*%
%TO.N,unconnected-(TP27-Pad1)*%
%TO.C,TP27*%
X99540000Y-71660000D03*
%TD*%
%TO.N,unconnected-(TP25-Pad1)*%
%TO.C,TP25*%
X160500000Y-69120000D03*
%TD*%
%TO.N,unconnected-(TP24-Pad1)*%
%TO.C,TP24*%
X157960000Y-69120000D03*
%TD*%
%TO.N,unconnected-(TP23-Pad1)*%
%TO.C,TP23*%
X155420000Y-69120000D03*
%TD*%
%TO.N,unconnected-(TP22-Pad1)*%
%TO.C,TP22*%
X152880000Y-69120000D03*
%TD*%
%TO.N,unconnected-(TP21-Pad1)*%
%TO.C,TP21*%
X150340000Y-69120000D03*
%TD*%
%TO.N,unconnected-(TP20-Pad1)*%
%TO.C,TP20*%
X147800000Y-69120000D03*
%TD*%
%TO.N,unconnected-(TP19-Pad1)*%
%TO.C,TP19*%
X145260000Y-69120000D03*
%TD*%
%TO.N,unconnected-(TP18-Pad1)*%
%TO.C,TP18*%
X142720000Y-69120000D03*
%TD*%
%TO.N,unconnected-(TP17-Pad1)*%
%TO.C,TP17*%
X140180000Y-69120000D03*
%TD*%
%TO.N,unconnected-(TP16-Pad1)*%
%TO.C,TP16*%
X137640000Y-69120000D03*
%TD*%
%TO.N,unconnected-(TP15-Pad1)*%
%TO.C,TP15*%
X135100000Y-69120000D03*
%TD*%
%TO.N,unconnected-(TP14-Pad1)*%
%TO.C,TP14*%
X132560000Y-69120000D03*
%TD*%
%TO.N,unconnected-(TP13-Pad1)*%
%TO.C,TP13*%
X130020000Y-69120000D03*
%TD*%
%TO.N,/F*%
%TO.C,TP12*%
X127480000Y-69120000D03*
%TD*%
%TO.N,unconnected-(TP11-Pad1)*%
%TO.C,TP11*%
X124940000Y-69120000D03*
%TD*%
%TO.N,unconnected-(TP10-Pad1)*%
%TO.C,TP10*%
X122400000Y-69120000D03*
%TD*%
%TO.N,unconnected-(TP9-Pad1)*%
%TO.C,TP9*%
X119860000Y-69120000D03*
%TD*%
%TO.N,unconnected-(TP8-Pad1)*%
%TO.C,TP8*%
X117320000Y-69120000D03*
%TD*%
%TO.N,unconnected-(TP7-Pad1)*%
%TO.C,TP7*%
X114780000Y-69120000D03*
%TD*%
%TO.N,unconnected-(TP6-Pad1)*%
%TO.C,TP6*%
X112240000Y-69120000D03*
%TD*%
%TO.N,unconnected-(TP5-Pad1)*%
%TO.C,TP5*%
X109700000Y-69120000D03*
%TD*%
%TO.N,unconnected-(TP4-Pad1)*%
%TO.C,TP4*%
X107160000Y-69120000D03*
%TD*%
%TO.N,unconnected-(TP3-Pad1)*%
%TO.C,TP3*%
X104620000Y-69120000D03*
%TD*%
%TO.N,unconnected-(TP2-Pad1)*%
%TO.C,TP2*%
X102080000Y-69120000D03*
%TD*%
D12*
%TO.N,/F*%
X124940000Y-81820000D02*
X127480000Y-84360000D01*
X127480000Y-79280000D02*
X124940000Y-81820000D01*
X124940000Y-76740000D02*
X127480000Y-79280000D01*
X126348000Y-70252000D02*
X126348000Y-75332000D01*
X126348000Y-75332000D02*
X124940000Y-76740000D01*
X127480000Y-69120000D02*
X126348000Y-70252000D01*
%TO.N,/E*%
X130020000Y-107220000D02*
X131428000Y-105812000D01*
X131428000Y-105812000D02*
X158428890Y-105812000D01*
X158428890Y-105812000D02*
X159092000Y-105148890D01*
X159092000Y-105148890D02*
X159092000Y-73068000D01*
X159092000Y-73068000D02*
X160500000Y-71660000D01*
%TO.N,/A*%
X108568000Y-91787110D02*
X107628890Y-90848000D01*
X109700000Y-102140000D02*
X108568000Y-101008000D01*
X108568000Y-101008000D02*
X108568000Y-91787110D01*
X107628890Y-90848000D02*
X100948000Y-90848000D01*
X100948000Y-90848000D02*
X99540000Y-89440000D01*
%TD*%
M02*
